ISO-10303-21;
HEADER;
FILE_DESCRIPTION(('Open CASCADE Model'),'2;1');
FILE_NAME('Open CASCADE Shape Model','2026-07-19T15:12:01',('Author'),(
    'Open CASCADE'),'Open CASCADE STEP processor 7.8','Open CASCADE 7.8'
  ,'Unknown');
FILE_SCHEMA(('AUTOMOTIVE_DESIGN { 1 0 10303 214 1 1 1 1 }'));
ENDSEC;
DATA;
#1 = APPLICATION_PROTOCOL_DEFINITION('international standard',
  'automotive_design',2000,#2);
#2 = APPLICATION_CONTEXT(
  'core data for automotive mechanical design processes');
#3 = SHAPE_DEFINITION_REPRESENTATION(#4,#10);
#4 = PRODUCT_DEFINITION_SHAPE('','',#5);
#5 = PRODUCT_DEFINITION('design','',#6,#9);
#6 = PRODUCT_DEFINITION_FORMATION('','',#7);
#7 = PRODUCT('004-SOLID(4)-1','004-SOLID(4)-1','',(#8));
#8 = PRODUCT_CONTEXT('',#2,'mechanical');
#9 = PRODUCT_DEFINITION_CONTEXT('part definition',#2,'design');
#10 = SHAPE_REPRESENTATION('',(#11,#15),#19);
#11 = AXIS2_PLACEMENT_3D('',#12,#13,#14);
#12 = CARTESIAN_POINT('',(0.,0.,0.));
#13 = DIRECTION('',(0.,0.,1.));
#14 = DIRECTION('',(1.,0.,-0.));
#15 = AXIS2_PLACEMENT_3D('',#16,#17,#18);
#16 = CARTESIAN_POINT('',(0.,0.,0.));
#17 = DIRECTION('',(0.,0.,1.));
#18 = DIRECTION('',(1.,0.,0.));
#19 = ( GEOMETRIC_REPRESENTATION_CONTEXT(3) 
GLOBAL_UNCERTAINTY_ASSIGNED_CONTEXT((#23)) GLOBAL_UNIT_ASSIGNED_CONTEXT(
(#20,#21,#22)) REPRESENTATION_CONTEXT('Context #1',
  '3D Context with UNIT and UNCERTAINTY') );
#20 = ( LENGTH_UNIT() NAMED_UNIT(*) SI_UNIT(.MILLI.,.METRE.) );
#21 = ( NAMED_UNIT(*) PLANE_ANGLE_UNIT() SI_UNIT($,.RADIAN.) );
#22 = ( NAMED_UNIT(*) SI_UNIT($,.STERADIAN.) SOLID_ANGLE_UNIT() );
#23 = UNCERTAINTY_MEASURE_WITH_UNIT(LENGTH_MEASURE(1.E-07),#20,
  'distance_accuracy_value','confusion accuracy');
#24 = PRODUCT_RELATED_PRODUCT_CATEGORY('part',$,(#7));
#25 = SHAPE_DEFINITION_REPRESENTATION(#26,#32);
#26 = PRODUCT_DEFINITION_SHAPE('','',#27);
#27 = PRODUCT_DEFINITION('design','',#28,#31);
#28 = PRODUCT_DEFINITION_FORMATION('','',#29);
#29 = PRODUCT('SOLID','SOLID','',(#30));
#30 = PRODUCT_CONTEXT('',#2,'mechanical');
#31 = PRODUCT_DEFINITION_CONTEXT('part definition',#2,'design');
#32 = ADVANCED_BREP_SHAPE_REPRESENTATION('',(#11,#33),#1462);
#33 = MANIFOLD_SOLID_BREP('',#34);
#34 = CLOSED_SHELL('',(#35,#77,#108,#139,#480,#821,#838,#855,#872,#889,
    #906,#923,#940,#957,#974,#991,#1008,#1025,#1042,#1059,#1076,#1093,
    #1110,#1127,#1144,#1161,#1173,#1190,#1207,#1224,#1241,#1263,#1280,
    #1297,#1314,#1331,#1348,#1365,#1382,#1399,#1416,#1433,#1445));
#35 = ADVANCED_FACE('',(#36),#72,.T.);
#36 = FACE_BOUND('',#37,.T.);
#37 = EDGE_LOOP('',(#38,#49,#57,#66));
#38 = ORIENTED_EDGE('',*,*,#39,.T.);
#39 = EDGE_CURVE('',#40,#42,#44,.T.);
#40 = VERTEX_POINT('',#41);
#41 = CARTESIAN_POINT('',(70.00000078,14.99999975,110.));
#42 = VERTEX_POINT('',#43);
#43 = CARTESIAN_POINT('',(60.00000078,24.99999975,110.));
#44 = CIRCLE('',#45,10.);
#45 = AXIS2_PLACEMENT_3D('',#46,#47,#48);
#46 = CARTESIAN_POINT('',(60.00000078,14.99999975,110.));
#47 = DIRECTION('',(0.,-0.,1.));
#48 = DIRECTION('',(1.,0.,0.));
#49 = ORIENTED_EDGE('',*,*,#50,.T.);
#50 = EDGE_CURVE('',#42,#51,#53,.T.);
#51 = VERTEX_POINT('',#52);
#52 = CARTESIAN_POINT('',(60.00000078,24.99999975,111.5));
#53 = LINE('',#54,#55);
#54 = CARTESIAN_POINT('',(60.00000078,24.99999975,110.));
#55 = VECTOR('',#56,1.);
#56 = DIRECTION('',(0.,0.,1.));
#57 = ORIENTED_EDGE('',*,*,#58,.F.);
#58 = EDGE_CURVE('',#59,#51,#61,.T.);
#59 = VERTEX_POINT('',#60);
#60 = CARTESIAN_POINT('',(70.00000078,14.99999975,111.5));
#61 = CIRCLE('',#62,10.);
#62 = AXIS2_PLACEMENT_3D('',#63,#64,#65);
#63 = CARTESIAN_POINT('',(60.00000078,14.99999975,111.5));
#64 = DIRECTION('',(0.,-0.,1.));
#65 = DIRECTION('',(1.,0.,0.));
#66 = ORIENTED_EDGE('',*,*,#67,.F.);
#67 = EDGE_CURVE('',#40,#59,#68,.T.);
#68 = LINE('',#69,#70);
#69 = CARTESIAN_POINT('',(70.00000078,14.99999975,110.));
#70 = VECTOR('',#71,1.);
#71 = DIRECTION('',(0.,0.,1.));
#72 = CYLINDRICAL_SURFACE('',#73,10.);
#73 = AXIS2_PLACEMENT_3D('',#74,#75,#76);
#74 = CARTESIAN_POINT('',(60.00000078,14.99999975,110.));
#75 = DIRECTION('',(-0.,0.,-1.));
#76 = DIRECTION('',(1.,0.,0.));
#77 = ADVANCED_FACE('',(#78),#103,.T.);
#78 = FACE_BOUND('',#79,.T.);
#79 = EDGE_LOOP('',(#80,#81,#89,#97));
#80 = ORIENTED_EDGE('',*,*,#67,.T.);
#81 = ORIENTED_EDGE('',*,*,#82,.T.);
#82 = EDGE_CURVE('',#59,#83,#85,.T.);
#83 = VERTEX_POINT('',#84);
#84 = CARTESIAN_POINT('',(70.00000078,-15.00000025,111.5));
#85 = LINE('',#86,#87);
#86 = CARTESIAN_POINT('',(70.00000078,14.99999975,111.5));
#87 = VECTOR('',#88,1.);
#88 = DIRECTION('',(0.,-1.,-0.));
#89 = ORIENTED_EDGE('',*,*,#90,.F.);
#90 = EDGE_CURVE('',#91,#83,#93,.T.);
#91 = VERTEX_POINT('',#92);
#92 = CARTESIAN_POINT('',(70.00000078,-15.00000025,110.));
#93 = LINE('',#94,#95);
#94 = CARTESIAN_POINT('',(70.00000078,-15.00000025,110.));
#95 = VECTOR('',#96,1.);
#96 = DIRECTION('',(0.,0.,1.));
#97 = ORIENTED_EDGE('',*,*,#98,.F.);
#98 = EDGE_CURVE('',#40,#91,#99,.T.);
#99 = LINE('',#100,#101);
#100 = CARTESIAN_POINT('',(70.00000078,14.99999975,110.));
#101 = VECTOR('',#102,1.);
#102 = DIRECTION('',(0.,-1.,-0.));
#103 = PLANE('',#104);
#104 = AXIS2_PLACEMENT_3D('',#105,#106,#107);
#105 = CARTESIAN_POINT('',(70.00000078,14.99999975,110.));
#106 = DIRECTION('',(1.,0.,-0.));
#107 = DIRECTION('',(0.,-1.,0.));
#108 = ADVANCED_FACE('',(#109),#134,.T.);
#109 = FACE_BOUND('',#110,.T.);
#110 = EDGE_LOOP('',(#111,#121,#127,#128));
#111 = ORIENTED_EDGE('',*,*,#112,.T.);
#112 = EDGE_CURVE('',#113,#115,#117,.T.);
#113 = VERTEX_POINT('',#114);
#114 = CARTESIAN_POINT('',(59.30000078,24.99999975,110.));
#115 = VERTEX_POINT('',#116);
#116 = CARTESIAN_POINT('',(59.30000078,24.99999975,111.5));
#117 = LINE('',#118,#119);
#118 = CARTESIAN_POINT('',(59.30000078,24.99999975,110.));
#119 = VECTOR('',#120,1.);
#120 = DIRECTION('',(0.,0.,1.));
#121 = ORIENTED_EDGE('',*,*,#122,.T.);
#122 = EDGE_CURVE('',#115,#51,#123,.T.);
#123 = LINE('',#124,#125);
#124 = CARTESIAN_POINT('',(59.30000078,24.99999975,111.5));
#125 = VECTOR('',#126,1.);
#126 = DIRECTION('',(1.,0.,0.));
#127 = ORIENTED_EDGE('',*,*,#50,.F.);
#128 = ORIENTED_EDGE('',*,*,#129,.F.);
#129 = EDGE_CURVE('',#113,#42,#130,.T.);
#130 = LINE('',#131,#132);
#131 = CARTESIAN_POINT('',(59.30000078,24.99999975,110.));
#132 = VECTOR('',#133,1.);
#133 = DIRECTION('',(1.,0.,0.));
#134 = PLANE('',#135);
#135 = AXIS2_PLACEMENT_3D('',#136,#137,#138);
#136 = CARTESIAN_POINT('',(59.30000078,24.99999975,110.));
#137 = DIRECTION('',(0.,1.,0.));
#138 = DIRECTION('',(1.,0.,0.));
#139 = ADVANCED_FACE('',(#140,#322,#333,#344,#355,#366,#464),#475,.F.);
#140 = FACE_BOUND('',#141,.F.);
#141 = EDGE_LOOP('',(#142,#143,#144,#153,#161,#170,#178,#187,#195,#204,
    #212,#221,#229,#238,#246,#255,#263,#272,#280,#289,#297,#306,#314,
    #321));
#142 = ORIENTED_EDGE('',*,*,#39,.T.);
#143 = ORIENTED_EDGE('',*,*,#129,.F.);
#144 = ORIENTED_EDGE('',*,*,#145,.T.);
#145 = EDGE_CURVE('',#113,#146,#148,.T.);
#146 = VERTEX_POINT('',#147);
#147 = CARTESIAN_POINT('',(59.00000078,24.69999975,110.));
#148 = CIRCLE('',#149,0.3);
#149 = AXIS2_PLACEMENT_3D('',#150,#151,#152);
#150 = CARTESIAN_POINT('',(59.30000078,24.69999975,110.));
#151 = DIRECTION('',(0.,-0.,1.));
#152 = DIRECTION('',(1.,0.,0.));
#153 = ORIENTED_EDGE('',*,*,#154,.T.);
#154 = EDGE_CURVE('',#146,#155,#157,.T.);
#155 = VERTEX_POINT('',#156);
#156 = CARTESIAN_POINT('',(59.00000078,24.59999975,110.));
#157 = LINE('',#158,#159);
#158 = CARTESIAN_POINT('',(59.00000078,24.69999975,110.));
#159 = VECTOR('',#160,1.);
#160 = DIRECTION('',(0.,-1.,-0.));
#161 = ORIENTED_EDGE('',*,*,#162,.F.);
#162 = EDGE_CURVE('',#163,#155,#165,.T.);
#163 = VERTEX_POINT('',#164);
#164 = CARTESIAN_POINT('',(58.50000078,24.09999975,110.));
#165 = CIRCLE('',#166,0.5);
#166 = AXIS2_PLACEMENT_3D('',#167,#168,#169);
#167 = CARTESIAN_POINT('',(58.50000078,24.59999975,110.));
#168 = DIRECTION('',(0.,-0.,1.));
#169 = DIRECTION('',(1.,0.,0.));
#170 = ORIENTED_EDGE('',*,*,#171,.T.);
#171 = EDGE_CURVE('',#163,#172,#174,.T.);
#172 = VERTEX_POINT('',#173);
#173 = CARTESIAN_POINT('',(-58.49999922,24.09999975,110.));
#174 = LINE('',#175,#176);
#175 = CARTESIAN_POINT('',(58.50000078,24.09999975,110.));
#176 = VECTOR('',#177,1.);
#177 = DIRECTION('',(-1.,0.,0.));
#178 = ORIENTED_EDGE('',*,*,#179,.F.);
#179 = EDGE_CURVE('',#180,#172,#182,.T.);
#180 = VERTEX_POINT('',#181);
#181 = CARTESIAN_POINT('',(-58.99999922,24.59999975,110.));
#182 = CIRCLE('',#183,0.5);
#183 = AXIS2_PLACEMENT_3D('',#184,#185,#186);
#184 = CARTESIAN_POINT('',(-58.49999922,24.59999975,110.));
#185 = DIRECTION('',(0.,-0.,1.));
#186 = DIRECTION('',(1.,0.,0.));
#187 = ORIENTED_EDGE('',*,*,#188,.T.);
#188 = EDGE_CURVE('',#180,#189,#191,.T.);
#189 = VERTEX_POINT('',#190);
#190 = CARTESIAN_POINT('',(-58.99999922,24.69999975,110.));
#191 = LINE('',#192,#193);
#192 = CARTESIAN_POINT('',(-58.99999922,24.59999975,110.));
#193 = VECTOR('',#194,1.);
#194 = DIRECTION('',(0.,1.,0.));
#195 = ORIENTED_EDGE('',*,*,#196,.T.);
#196 = EDGE_CURVE('',#189,#197,#199,.T.);
#197 = VERTEX_POINT('',#198);
#198 = CARTESIAN_POINT('',(-59.29999922,24.99999975,110.));
#199 = CIRCLE('',#200,0.3);
#200 = AXIS2_PLACEMENT_3D('',#201,#202,#203);
#201 = CARTESIAN_POINT('',(-59.29999922,24.69999975,110.));
#202 = DIRECTION('',(0.,-0.,1.));
#203 = DIRECTION('',(1.,0.,0.));
#204 = ORIENTED_EDGE('',*,*,#205,.F.);
#205 = EDGE_CURVE('',#206,#197,#208,.T.);
#206 = VERTEX_POINT('',#207);
#207 = CARTESIAN_POINT('',(-59.99999922,24.99999975,110.));
#208 = LINE('',#209,#210);
#209 = CARTESIAN_POINT('',(-59.99999922,24.99999975,110.));
#210 = VECTOR('',#211,1.);
#211 = DIRECTION('',(1.,0.,0.));
#212 = ORIENTED_EDGE('',*,*,#213,.T.);
#213 = EDGE_CURVE('',#206,#214,#216,.T.);
#214 = VERTEX_POINT('',#215);
#215 = CARTESIAN_POINT('',(-69.99999922,14.99999975,110.));
#216 = CIRCLE('',#217,10.);
#217 = AXIS2_PLACEMENT_3D('',#218,#219,#220);
#218 = CARTESIAN_POINT('',(-59.99999922,14.99999975,110.));
#219 = DIRECTION('',(0.,-0.,1.));
#220 = DIRECTION('',(1.,0.,0.));
#221 = ORIENTED_EDGE('',*,*,#222,.F.);
#222 = EDGE_CURVE('',#223,#214,#225,.T.);
#223 = VERTEX_POINT('',#224);
#224 = CARTESIAN_POINT('',(-69.99999922,-15.00000025,110.));
#225 = LINE('',#226,#227);
#226 = CARTESIAN_POINT('',(-69.99999922,-15.00000025,110.));
#227 = VECTOR('',#228,1.);
#228 = DIRECTION('',(0.,1.,0.));
#229 = ORIENTED_EDGE('',*,*,#230,.T.);
#230 = EDGE_CURVE('',#223,#231,#233,.T.);
#231 = VERTEX_POINT('',#232);
#232 = CARTESIAN_POINT('',(-59.99999922,-25.00000025,110.));
#233 = CIRCLE('',#234,10.);
#234 = AXIS2_PLACEMENT_3D('',#235,#236,#237);
#235 = CARTESIAN_POINT('',(-59.99999922,-15.00000025,110.));
#236 = DIRECTION('',(0.,-0.,1.));
#237 = DIRECTION('',(1.,0.,0.));
#238 = ORIENTED_EDGE('',*,*,#239,.F.);
#239 = EDGE_CURVE('',#240,#231,#242,.T.);
#240 = VERTEX_POINT('',#241);
#241 = CARTESIAN_POINT('',(-59.29999922,-25.00000025,110.));
#242 = LINE('',#243,#244);
#243 = CARTESIAN_POINT('',(-59.29999922,-25.00000025,110.));
#244 = VECTOR('',#245,1.);
#245 = DIRECTION('',(-1.,0.,0.));
#246 = ORIENTED_EDGE('',*,*,#247,.T.);
#247 = EDGE_CURVE('',#240,#248,#250,.T.);
#248 = VERTEX_POINT('',#249);
#249 = CARTESIAN_POINT('',(-58.99999922,-24.70000025,110.));
#250 = CIRCLE('',#251,0.3);
#251 = AXIS2_PLACEMENT_3D('',#252,#253,#254);
#252 = CARTESIAN_POINT('',(-59.29999922,-24.70000025,110.));
#253 = DIRECTION('',(0.,-0.,1.));
#254 = DIRECTION('',(1.,0.,0.));
#255 = ORIENTED_EDGE('',*,*,#256,.T.);
#256 = EDGE_CURVE('',#248,#257,#259,.T.);
#257 = VERTEX_POINT('',#258);
#258 = CARTESIAN_POINT('',(-58.99999922,-24.60000025,110.));
#259 = LINE('',#260,#261);
#260 = CARTESIAN_POINT('',(-58.99999922,-24.70000025,110.));
#261 = VECTOR('',#262,1.);
#262 = DIRECTION('',(0.,1.,0.));
#263 = ORIENTED_EDGE('',*,*,#264,.F.);
#264 = EDGE_CURVE('',#265,#257,#267,.T.);
#265 = VERTEX_POINT('',#266);
#266 = CARTESIAN_POINT('',(-58.49999922,-24.10000025,110.));
#267 = CIRCLE('',#268,0.5);
#268 = AXIS2_PLACEMENT_3D('',#269,#270,#271);
#269 = CARTESIAN_POINT('',(-58.49999922,-24.60000025,110.));
#270 = DIRECTION('',(0.,-0.,1.));
#271 = DIRECTION('',(1.,0.,0.));
#272 = ORIENTED_EDGE('',*,*,#273,.T.);
#273 = EDGE_CURVE('',#265,#274,#276,.T.);
#274 = VERTEX_POINT('',#275);
#275 = CARTESIAN_POINT('',(58.50000078,-24.10000025,110.));
#276 = LINE('',#277,#278);
#277 = CARTESIAN_POINT('',(-58.49999922,-24.10000025,110.));
#278 = VECTOR('',#279,1.);
#279 = DIRECTION('',(1.,0.,0.));
#280 = ORIENTED_EDGE('',*,*,#281,.F.);
#281 = EDGE_CURVE('',#282,#274,#284,.T.);
#282 = VERTEX_POINT('',#283);
#283 = CARTESIAN_POINT('',(59.00000078,-24.60000025,110.));
#284 = CIRCLE('',#285,0.5);
#285 = AXIS2_PLACEMENT_3D('',#286,#287,#288);
#286 = CARTESIAN_POINT('',(58.50000078,-24.60000025,110.));
#287 = DIRECTION('',(0.,-0.,1.));
#288 = DIRECTION('',(1.,0.,0.));
#289 = ORIENTED_EDGE('',*,*,#290,.T.);
#290 = EDGE_CURVE('',#282,#291,#293,.T.);
#291 = VERTEX_POINT('',#292);
#292 = CARTESIAN_POINT('',(59.00000078,-24.70000025,110.));
#293 = LINE('',#294,#295);
#294 = CARTESIAN_POINT('',(59.00000078,-24.60000025,110.));
#295 = VECTOR('',#296,1.);
#296 = DIRECTION('',(0.,-1.,-0.));
#297 = ORIENTED_EDGE('',*,*,#298,.T.);
#298 = EDGE_CURVE('',#291,#299,#301,.T.);
#299 = VERTEX_POINT('',#300);
#300 = CARTESIAN_POINT('',(59.30000078,-25.00000025,110.));
#301 = CIRCLE('',#302,0.3);
#302 = AXIS2_PLACEMENT_3D('',#303,#304,#305);
#303 = CARTESIAN_POINT('',(59.30000078,-24.70000025,110.));
#304 = DIRECTION('',(0.,-0.,1.));
#305 = DIRECTION('',(1.,0.,0.));
#306 = ORIENTED_EDGE('',*,*,#307,.F.);
#307 = EDGE_CURVE('',#308,#299,#310,.T.);
#308 = VERTEX_POINT('',#309);
#309 = CARTESIAN_POINT('',(60.00000078,-25.00000025,110.));
#310 = LINE('',#311,#312);
#311 = CARTESIAN_POINT('',(60.00000078,-25.00000025,110.));
#312 = VECTOR('',#313,1.);
#313 = DIRECTION('',(-1.,0.,0.));
#314 = ORIENTED_EDGE('',*,*,#315,.T.);
#315 = EDGE_CURVE('',#308,#91,#316,.T.);
#316 = CIRCLE('',#317,10.);
#317 = AXIS2_PLACEMENT_3D('',#318,#319,#320);
#318 = CARTESIAN_POINT('',(60.00000078,-15.00000025,110.));
#319 = DIRECTION('',(0.,-0.,1.));
#320 = DIRECTION('',(1.,0.,0.));
#321 = ORIENTED_EDGE('',*,*,#98,.F.);
#322 = FACE_BOUND('',#323,.F.);
#323 = EDGE_LOOP('',(#324));
#324 = ORIENTED_EDGE('',*,*,#325,.F.);
#325 = EDGE_CURVE('',#326,#326,#328,.T.);
#326 = VERTEX_POINT('',#327);
#327 = CARTESIAN_POINT('',(-63.99999922,-21.75000025,110.));
#328 = CIRCLE('',#329,1.75);
#329 = AXIS2_PLACEMENT_3D('',#330,#331,#332);
#330 = CARTESIAN_POINT('',(-63.99999922,-20.00000025,110.));
#331 = DIRECTION('',(0.,0.,1.));
#332 = DIRECTION('',(0.,-1.,0.));
#333 = FACE_BOUND('',#334,.F.);
#334 = EDGE_LOOP('',(#335));
#335 = ORIENTED_EDGE('',*,*,#336,.F.);
#336 = EDGE_CURVE('',#337,#337,#339,.T.);
#337 = VERTEX_POINT('',#338);
#338 = CARTESIAN_POINT('',(64.00000078,-21.75000025,110.));
#339 = CIRCLE('',#340,1.75);
#340 = AXIS2_PLACEMENT_3D('',#341,#342,#343);
#341 = CARTESIAN_POINT('',(64.00000078,-20.00000025,110.));
#342 = DIRECTION('',(0.,0.,1.));
#343 = DIRECTION('',(0.,-1.,0.));
#344 = FACE_BOUND('',#345,.F.);
#345 = EDGE_LOOP('',(#346));
#346 = ORIENTED_EDGE('',*,*,#347,.F.);
#347 = EDGE_CURVE('',#348,#348,#350,.T.);
#348 = VERTEX_POINT('',#349);
#349 = CARTESIAN_POINT('',(-45.64094666,8.8154949,110.));
#350 = CIRCLE('',#351,3.15);
#351 = AXIS2_PLACEMENT_3D('',#352,#353,#354);
#352 = CARTESIAN_POINT('',(-48.79094666,8.8154949,110.));
#353 = DIRECTION('',(0.,-0.,1.));
#354 = DIRECTION('',(1.,0.,0.));
#355 = FACE_BOUND('',#356,.F.);
#356 = EDGE_LOOP('',(#357));
#357 = ORIENTED_EDGE('',*,*,#358,.F.);
#358 = EDGE_CURVE('',#359,#359,#361,.T.);
#359 = VERTEX_POINT('',#360);
#360 = CARTESIAN_POINT('',(-63.99999922,18.24999975,110.));
#361 = CIRCLE('',#362,1.75);
#362 = AXIS2_PLACEMENT_3D('',#363,#364,#365);
#363 = CARTESIAN_POINT('',(-63.99999922,19.99999975,110.));
#364 = DIRECTION('',(0.,0.,1.));
#365 = DIRECTION('',(0.,-1.,0.));
#366 = FACE_BOUND('',#367,.F.);
#367 = EDGE_LOOP('',(#368,#378,#386,#394,#402,#410,#418,#426,#434,#442,
    #450,#458));
#368 = ORIENTED_EDGE('',*,*,#369,.F.);
#369 = EDGE_CURVE('',#370,#372,#374,.T.);
#370 = VERTEX_POINT('',#371);
#371 = CARTESIAN_POINT('',(38.9215056,4.21549483,110.));
#372 = VERTEX_POINT('',#373);
#373 = CARTESIAN_POINT('',(38.9215056,4.015495,110.));
#374 = LINE('',#375,#376);
#375 = CARTESIAN_POINT('',(38.9215056,2.107747415,110.));
#376 = VECTOR('',#377,1.);
#377 = DIRECTION('',(0.,-1.,0.));
#378 = ORIENTED_EDGE('',*,*,#379,.T.);
#379 = EDGE_CURVE('',#370,#380,#382,.T.);
#380 = VERTEX_POINT('',#381);
#381 = CARTESIAN_POINT('',(38.72150572,4.21549483,110.));
#382 = LINE('',#383,#384);
#383 = CARTESIAN_POINT('',(19.4607528,4.21549483,110.));
#384 = VECTOR('',#385,1.);
#385 = DIRECTION('',(-1.,0.,0.));
#386 = ORIENTED_EDGE('',*,*,#387,.T.);
#387 = EDGE_CURVE('',#380,#388,#390,.T.);
#388 = VERTEX_POINT('',#389);
#389 = CARTESIAN_POINT('',(38.72150572,15.41549502,110.));
#390 = LINE('',#391,#392);
#391 = CARTESIAN_POINT('',(38.72150572,2.107747415,110.));
#392 = VECTOR('',#393,1.);
#393 = DIRECTION('',(0.,1.,0.));
#394 = ORIENTED_EDGE('',*,*,#395,.T.);
#395 = EDGE_CURVE('',#388,#396,#398,.T.);
#396 = VERTEX_POINT('',#397);
#397 = CARTESIAN_POINT('',(38.9215056,15.41549502,110.));
#398 = LINE('',#399,#400);
#399 = CARTESIAN_POINT('',(19.36075286,15.41549502,110.));
#400 = VECTOR('',#401,1.);
#401 = DIRECTION('',(1.,0.,-0.));
#402 = ORIENTED_EDGE('',*,*,#403,.F.);
#403 = EDGE_CURVE('',#404,#396,#406,.T.);
#404 = VERTEX_POINT('',#405);
#405 = CARTESIAN_POINT('',(38.9215056,15.61549502,110.));
#406 = LINE('',#407,#408);
#407 = CARTESIAN_POINT('',(38.9215056,7.80774751,110.));
#408 = VECTOR('',#409,1.);
#409 = DIRECTION('',(0.,-1.,0.));
#410 = ORIENTED_EDGE('',*,*,#411,.T.);
#411 = EDGE_CURVE('',#404,#412,#414,.T.);
#412 = VERTEX_POINT('',#413);
#413 = CARTESIAN_POINT('',(48.12150576,15.61549502,110.));
#414 = LINE('',#415,#416);
#415 = CARTESIAN_POINT('',(19.4607528,15.61549502,110.));
#416 = VECTOR('',#417,1.);
#417 = DIRECTION('',(1.,0.,-0.));
#418 = ORIENTED_EDGE('',*,*,#419,.T.);
#419 = EDGE_CURVE('',#412,#420,#422,.T.);
#420 = VERTEX_POINT('',#421);
#421 = CARTESIAN_POINT('',(48.12150576,15.41549502,110.));
#422 = LINE('',#423,#424);
#423 = CARTESIAN_POINT('',(48.12150576,7.80774751,110.));
#424 = VECTOR('',#425,1.);
#425 = DIRECTION('',(0.,-1.,0.));
#426 = ORIENTED_EDGE('',*,*,#427,.F.);
#427 = EDGE_CURVE('',#428,#420,#430,.T.);
#428 = VERTEX_POINT('',#429);
#429 = CARTESIAN_POINT('',(48.32150572,15.41549502,110.));
#430 = LINE('',#431,#432);
#431 = CARTESIAN_POINT('',(24.16075286,15.41549502,110.));
#432 = VECTOR('',#433,1.);
#433 = DIRECTION('',(-1.,0.,0.));
#434 = ORIENTED_EDGE('',*,*,#435,.T.);
#435 = EDGE_CURVE('',#428,#436,#438,.T.);
#436 = VERTEX_POINT('',#437);
#437 = CARTESIAN_POINT('',(48.32150572,4.21549483,110.));
#438 = LINE('',#439,#440);
#439 = CARTESIAN_POINT('',(48.32150572,7.70774751,110.));
#440 = VECTOR('',#441,1.);
#441 = DIRECTION('',(0.,-1.,0.));
#442 = ORIENTED_EDGE('',*,*,#443,.F.);
#443 = EDGE_CURVE('',#444,#436,#446,.T.);
#444 = VERTEX_POINT('',#445);
#445 = CARTESIAN_POINT('',(48.12150576,4.21549483,110.));
#446 = LINE('',#447,#448);
#447 = CARTESIAN_POINT('',(24.06075288,4.21549483,110.));
#448 = VECTOR('',#449,1.);
#449 = DIRECTION('',(1.,0.,-0.));
#450 = ORIENTED_EDGE('',*,*,#451,.T.);
#451 = EDGE_CURVE('',#444,#452,#454,.T.);
#452 = VERTEX_POINT('',#453);
#453 = CARTESIAN_POINT('',(48.12150576,4.015495,110.));
#454 = LINE('',#455,#456);
#455 = CARTESIAN_POINT('',(48.12150576,2.107747415,110.));
#456 = VECTOR('',#457,1.);
#457 = DIRECTION('',(0.,-1.,0.));
#458 = ORIENTED_EDGE('',*,*,#459,.T.);
#459 = EDGE_CURVE('',#452,#372,#460,.T.);
#460 = LINE('',#461,#462);
#461 = CARTESIAN_POINT('',(24.06075288,4.015495,110.));
#462 = VECTOR('',#463,1.);
#463 = DIRECTION('',(-1.,0.,0.));
#464 = FACE_BOUND('',#465,.F.);
#465 = EDGE_LOOP('',(#466));
#466 = ORIENTED_EDGE('',*,*,#467,.F.);
#467 = EDGE_CURVE('',#468,#468,#470,.T.);
#468 = VERTEX_POINT('',#469);
#469 = CARTESIAN_POINT('',(64.00000078,18.24999975,110.));
#470 = CIRCLE('',#471,1.75);
#471 = AXIS2_PLACEMENT_3D('',#472,#473,#474);
#472 = CARTESIAN_POINT('',(64.00000078,19.99999975,110.));
#473 = DIRECTION('',(0.,0.,1.));
#474 = DIRECTION('',(0.,-1.,0.));
#475 = PLANE('',#476);
#476 = AXIS2_PLACEMENT_3D('',#477,#478,#479);
#477 = CARTESIAN_POINT('',(0.,0.,110.));
#478 = DIRECTION('',(0.,0.,1.));
#479 = DIRECTION('',(1.,0.,-0.));
#480 = ADVANCED_FACE('',(#481,#663,#674,#685,#696,#707,#805),#816,.T.);
#481 = FACE_BOUND('',#482,.T.);
#482 = EDGE_LOOP('',(#483,#484,#485,#494,#502,#511,#519,#528,#536,#545,
    #553,#562,#570,#579,#587,#596,#604,#613,#621,#630,#638,#647,#655,
    #662));
#483 = ORIENTED_EDGE('',*,*,#58,.T.);
#484 = ORIENTED_EDGE('',*,*,#122,.F.);
#485 = ORIENTED_EDGE('',*,*,#486,.T.);
#486 = EDGE_CURVE('',#115,#487,#489,.T.);
#487 = VERTEX_POINT('',#488);
#488 = CARTESIAN_POINT('',(59.00000078,24.69999975,111.5));
#489 = CIRCLE('',#490,0.3);
#490 = AXIS2_PLACEMENT_3D('',#491,#492,#493);
#491 = CARTESIAN_POINT('',(59.30000078,24.69999975,111.5));
#492 = DIRECTION('',(0.,-0.,1.));
#493 = DIRECTION('',(1.,0.,0.));
#494 = ORIENTED_EDGE('',*,*,#495,.T.);
#495 = EDGE_CURVE('',#487,#496,#498,.T.);
#496 = VERTEX_POINT('',#497);
#497 = CARTESIAN_POINT('',(59.00000078,24.59999975,111.5));
#498 = LINE('',#499,#500);
#499 = CARTESIAN_POINT('',(59.00000078,24.69999975,111.5));
#500 = VECTOR('',#501,1.);
#501 = DIRECTION('',(0.,-1.,-0.));
#502 = ORIENTED_EDGE('',*,*,#503,.F.);
#503 = EDGE_CURVE('',#504,#496,#506,.T.);
#504 = VERTEX_POINT('',#505);
#505 = CARTESIAN_POINT('',(58.50000078,24.09999975,111.5));
#506 = CIRCLE('',#507,0.5);
#507 = AXIS2_PLACEMENT_3D('',#508,#509,#510);
#508 = CARTESIAN_POINT('',(58.50000078,24.59999975,111.5));
#509 = DIRECTION('',(0.,-0.,1.));
#510 = DIRECTION('',(1.,0.,0.));
#511 = ORIENTED_EDGE('',*,*,#512,.T.);
#512 = EDGE_CURVE('',#504,#513,#515,.T.);
#513 = VERTEX_POINT('',#514);
#514 = CARTESIAN_POINT('',(-58.49999922,24.09999975,111.5));
#515 = LINE('',#516,#517);
#516 = CARTESIAN_POINT('',(58.50000078,24.09999975,111.5));
#517 = VECTOR('',#518,1.);
#518 = DIRECTION('',(-1.,0.,0.));
#519 = ORIENTED_EDGE('',*,*,#520,.F.);
#520 = EDGE_CURVE('',#521,#513,#523,.T.);
#521 = VERTEX_POINT('',#522);
#522 = CARTESIAN_POINT('',(-58.99999922,24.59999975,111.5));
#523 = CIRCLE('',#524,0.5);
#524 = AXIS2_PLACEMENT_3D('',#525,#526,#527);
#525 = CARTESIAN_POINT('',(-58.49999922,24.59999975,111.5));
#526 = DIRECTION('',(0.,-0.,1.));
#527 = DIRECTION('',(1.,0.,0.));
#528 = ORIENTED_EDGE('',*,*,#529,.T.);
#529 = EDGE_CURVE('',#521,#530,#532,.T.);
#530 = VERTEX_POINT('',#531);
#531 = CARTESIAN_POINT('',(-58.99999922,24.69999975,111.5));
#532 = LINE('',#533,#534);
#533 = CARTESIAN_POINT('',(-58.99999922,24.59999975,111.5));
#534 = VECTOR('',#535,1.);
#535 = DIRECTION('',(0.,1.,0.));
#536 = ORIENTED_EDGE('',*,*,#537,.T.);
#537 = EDGE_CURVE('',#530,#538,#540,.T.);
#538 = VERTEX_POINT('',#539);
#539 = CARTESIAN_POINT('',(-59.29999922,24.99999975,111.5));
#540 = CIRCLE('',#541,0.3);
#541 = AXIS2_PLACEMENT_3D('',#542,#543,#544);
#542 = CARTESIAN_POINT('',(-59.29999922,24.69999975,111.5));
#543 = DIRECTION('',(0.,-0.,1.));
#544 = DIRECTION('',(1.,0.,0.));
#545 = ORIENTED_EDGE('',*,*,#546,.F.);
#546 = EDGE_CURVE('',#547,#538,#549,.T.);
#547 = VERTEX_POINT('',#548);
#548 = CARTESIAN_POINT('',(-59.99999922,24.99999975,111.5));
#549 = LINE('',#550,#551);
#550 = CARTESIAN_POINT('',(-59.99999922,24.99999975,111.5));
#551 = VECTOR('',#552,1.);
#552 = DIRECTION('',(1.,0.,0.));
#553 = ORIENTED_EDGE('',*,*,#554,.T.);
#554 = EDGE_CURVE('',#547,#555,#557,.T.);
#555 = VERTEX_POINT('',#556);
#556 = CARTESIAN_POINT('',(-69.99999922,14.99999975,111.5));
#557 = CIRCLE('',#558,10.);
#558 = AXIS2_PLACEMENT_3D('',#559,#560,#561);
#559 = CARTESIAN_POINT('',(-59.99999922,14.99999975,111.5));
#560 = DIRECTION('',(0.,-0.,1.));
#561 = DIRECTION('',(1.,0.,0.));
#562 = ORIENTED_EDGE('',*,*,#563,.F.);
#563 = EDGE_CURVE('',#564,#555,#566,.T.);
#564 = VERTEX_POINT('',#565);
#565 = CARTESIAN_POINT('',(-69.99999922,-15.00000025,111.5));
#566 = LINE('',#567,#568);
#567 = CARTESIAN_POINT('',(-69.99999922,-15.00000025,111.5));
#568 = VECTOR('',#569,1.);
#569 = DIRECTION('',(0.,1.,0.));
#570 = ORIENTED_EDGE('',*,*,#571,.T.);
#571 = EDGE_CURVE('',#564,#572,#574,.T.);
#572 = VERTEX_POINT('',#573);
#573 = CARTESIAN_POINT('',(-59.99999922,-25.00000025,111.5));
#574 = CIRCLE('',#575,10.);
#575 = AXIS2_PLACEMENT_3D('',#576,#577,#578);
#576 = CARTESIAN_POINT('',(-59.99999922,-15.00000025,111.5));
#577 = DIRECTION('',(0.,-0.,1.));
#578 = DIRECTION('',(1.,0.,0.));
#579 = ORIENTED_EDGE('',*,*,#580,.F.);
#580 = EDGE_CURVE('',#581,#572,#583,.T.);
#581 = VERTEX_POINT('',#582);
#582 = CARTESIAN_POINT('',(-59.29999922,-25.00000025,111.5));
#583 = LINE('',#584,#585);
#584 = CARTESIAN_POINT('',(-59.29999922,-25.00000025,111.5));
#585 = VECTOR('',#586,1.);
#586 = DIRECTION('',(-1.,0.,0.));
#587 = ORIENTED_EDGE('',*,*,#588,.T.);
#588 = EDGE_CURVE('',#581,#589,#591,.T.);
#589 = VERTEX_POINT('',#590);
#590 = CARTESIAN_POINT('',(-58.99999922,-24.70000025,111.5));
#591 = CIRCLE('',#592,0.3);
#592 = AXIS2_PLACEMENT_3D('',#593,#594,#595);
#593 = CARTESIAN_POINT('',(-59.29999922,-24.70000025,111.5));
#594 = DIRECTION('',(0.,-0.,1.));
#595 = DIRECTION('',(1.,0.,0.));
#596 = ORIENTED_EDGE('',*,*,#597,.T.);
#597 = EDGE_CURVE('',#589,#598,#600,.T.);
#598 = VERTEX_POINT('',#599);
#599 = CARTESIAN_POINT('',(-58.99999922,-24.60000025,111.5));
#600 = LINE('',#601,#602);
#601 = CARTESIAN_POINT('',(-58.99999922,-24.70000025,111.5));
#602 = VECTOR('',#603,1.);
#603 = DIRECTION('',(0.,1.,0.));
#604 = ORIENTED_EDGE('',*,*,#605,.F.);
#605 = EDGE_CURVE('',#606,#598,#608,.T.);
#606 = VERTEX_POINT('',#607);
#607 = CARTESIAN_POINT('',(-58.49999922,-24.10000025,111.5));
#608 = CIRCLE('',#609,0.5);
#609 = AXIS2_PLACEMENT_3D('',#610,#611,#612);
#610 = CARTESIAN_POINT('',(-58.49999922,-24.60000025,111.5));
#611 = DIRECTION('',(0.,-0.,1.));
#612 = DIRECTION('',(1.,0.,0.));
#613 = ORIENTED_EDGE('',*,*,#614,.T.);
#614 = EDGE_CURVE('',#606,#615,#617,.T.);
#615 = VERTEX_POINT('',#616);
#616 = CARTESIAN_POINT('',(58.50000078,-24.10000025,111.5));
#617 = LINE('',#618,#619);
#618 = CARTESIAN_POINT('',(-58.49999922,-24.10000025,111.5));
#619 = VECTOR('',#620,1.);
#620 = DIRECTION('',(1.,0.,0.));
#621 = ORIENTED_EDGE('',*,*,#622,.F.);
#622 = EDGE_CURVE('',#623,#615,#625,.T.);
#623 = VERTEX_POINT('',#624);
#624 = CARTESIAN_POINT('',(59.00000078,-24.60000025,111.5));
#625 = CIRCLE('',#626,0.5);
#626 = AXIS2_PLACEMENT_3D('',#627,#628,#629);
#627 = CARTESIAN_POINT('',(58.50000078,-24.60000025,111.5));
#628 = DIRECTION('',(0.,-0.,1.));
#629 = DIRECTION('',(1.,0.,0.));
#630 = ORIENTED_EDGE('',*,*,#631,.T.);
#631 = EDGE_CURVE('',#623,#632,#634,.T.);
#632 = VERTEX_POINT('',#633);
#633 = CARTESIAN_POINT('',(59.00000078,-24.70000025,111.5));
#634 = LINE('',#635,#636);
#635 = CARTESIAN_POINT('',(59.00000078,-24.60000025,111.5));
#636 = VECTOR('',#637,1.);
#637 = DIRECTION('',(0.,-1.,-0.));
#638 = ORIENTED_EDGE('',*,*,#639,.T.);
#639 = EDGE_CURVE('',#632,#640,#642,.T.);
#640 = VERTEX_POINT('',#641);
#641 = CARTESIAN_POINT('',(59.30000078,-25.00000025,111.5));
#642 = CIRCLE('',#643,0.3);
#643 = AXIS2_PLACEMENT_3D('',#644,#645,#646);
#644 = CARTESIAN_POINT('',(59.30000078,-24.70000025,111.5));
#645 = DIRECTION('',(0.,-0.,1.));
#646 = DIRECTION('',(1.,0.,0.));
#647 = ORIENTED_EDGE('',*,*,#648,.F.);
#648 = EDGE_CURVE('',#649,#640,#651,.T.);
#649 = VERTEX_POINT('',#650);
#650 = CARTESIAN_POINT('',(60.00000078,-25.00000025,111.5));
#651 = LINE('',#652,#653);
#652 = CARTESIAN_POINT('',(60.00000078,-25.00000025,111.5));
#653 = VECTOR('',#654,1.);
#654 = DIRECTION('',(-1.,0.,0.));
#655 = ORIENTED_EDGE('',*,*,#656,.T.);
#656 = EDGE_CURVE('',#649,#83,#657,.T.);
#657 = CIRCLE('',#658,10.);
#658 = AXIS2_PLACEMENT_3D('',#659,#660,#661);
#659 = CARTESIAN_POINT('',(60.00000078,-15.00000025,111.5));
#660 = DIRECTION('',(0.,-0.,1.));
#661 = DIRECTION('',(1.,0.,0.));
#662 = ORIENTED_EDGE('',*,*,#82,.F.);
#663 = FACE_BOUND('',#664,.T.);
#664 = EDGE_LOOP('',(#665));
#665 = ORIENTED_EDGE('',*,*,#666,.T.);
#666 = EDGE_CURVE('',#667,#667,#669,.T.);
#667 = VERTEX_POINT('',#668);
#668 = CARTESIAN_POINT('',(-63.99999922,-23.25000025,111.5));
#669 = CIRCLE('',#670,3.25);
#670 = AXIS2_PLACEMENT_3D('',#671,#672,#673);
#671 = CARTESIAN_POINT('',(-63.99999922,-20.00000025,111.5));
#672 = DIRECTION('',(-0.,-0.,-1.));
#673 = DIRECTION('',(0.,-1.,0.));
#674 = FACE_BOUND('',#675,.T.);
#675 = EDGE_LOOP('',(#676));
#676 = ORIENTED_EDGE('',*,*,#677,.T.);
#677 = EDGE_CURVE('',#678,#678,#680,.T.);
#678 = VERTEX_POINT('',#679);
#679 = CARTESIAN_POINT('',(64.00000078,-23.25000025,111.5));
#680 = CIRCLE('',#681,3.25);
#681 = AXIS2_PLACEMENT_3D('',#682,#683,#684);
#682 = CARTESIAN_POINT('',(64.00000078,-20.00000025,111.5));
#683 = DIRECTION('',(-0.,-0.,-1.));
#684 = DIRECTION('',(0.,-1.,0.));
#685 = FACE_BOUND('',#686,.T.);
#686 = EDGE_LOOP('',(#687));
#687 = ORIENTED_EDGE('',*,*,#688,.T.);
#688 = EDGE_CURVE('',#689,#689,#691,.T.);
#689 = VERTEX_POINT('',#690);
#690 = CARTESIAN_POINT('',(-45.64094666,8.8154949,111.5));
#691 = CIRCLE('',#692,3.15);
#692 = AXIS2_PLACEMENT_3D('',#693,#694,#695);
#693 = CARTESIAN_POINT('',(-48.79094666,8.8154949,111.5));
#694 = DIRECTION('',(0.,-0.,-1.));
#695 = DIRECTION('',(1.,-3.189934463293E-16,0.));
#696 = FACE_BOUND('',#697,.T.);
#697 = EDGE_LOOP('',(#698));
#698 = ORIENTED_EDGE('',*,*,#699,.T.);
#699 = EDGE_CURVE('',#700,#700,#702,.T.);
#700 = VERTEX_POINT('',#701);
#701 = CARTESIAN_POINT('',(-63.99999922,16.74999975,111.5));
#702 = CIRCLE('',#703,3.25);
#703 = AXIS2_PLACEMENT_3D('',#704,#705,#706);
#704 = CARTESIAN_POINT('',(-63.99999922,19.99999975,111.5));
#705 = DIRECTION('',(-0.,-0.,-1.));
#706 = DIRECTION('',(0.,-1.,0.));
#707 = FACE_BOUND('',#708,.T.);
#708 = EDGE_LOOP('',(#709,#719,#727,#735,#743,#751,#759,#767,#775,#783,
    #791,#799));
#709 = ORIENTED_EDGE('',*,*,#710,.F.);
#710 = EDGE_CURVE('',#711,#713,#715,.T.);
#711 = VERTEX_POINT('',#712);
#712 = CARTESIAN_POINT('',(38.9215056,4.21549483,111.5));
#713 = VERTEX_POINT('',#714);
#714 = CARTESIAN_POINT('',(38.9215056,4.015495,111.5));
#715 = LINE('',#716,#717);
#716 = CARTESIAN_POINT('',(38.9215056,2.107747415,111.5));
#717 = VECTOR('',#718,1.);
#718 = DIRECTION('',(0.,-1.,0.));
#719 = ORIENTED_EDGE('',*,*,#720,.T.);
#720 = EDGE_CURVE('',#711,#721,#723,.T.);
#721 = VERTEX_POINT('',#722);
#722 = CARTESIAN_POINT('',(38.72150572,4.21549483,111.5));
#723 = LINE('',#724,#725);
#724 = CARTESIAN_POINT('',(19.4607528,4.21549483,111.5));
#725 = VECTOR('',#726,1.);
#726 = DIRECTION('',(-1.,0.,0.));
#727 = ORIENTED_EDGE('',*,*,#728,.T.);
#728 = EDGE_CURVE('',#721,#729,#731,.T.);
#729 = VERTEX_POINT('',#730);
#730 = CARTESIAN_POINT('',(38.72150572,15.41549502,111.5));
#731 = LINE('',#732,#733);
#732 = CARTESIAN_POINT('',(38.72150572,2.107747415,111.5));
#733 = VECTOR('',#734,1.);
#734 = DIRECTION('',(0.,1.,0.));
#735 = ORIENTED_EDGE('',*,*,#736,.T.);
#736 = EDGE_CURVE('',#729,#737,#739,.T.);
#737 = VERTEX_POINT('',#738);
#738 = CARTESIAN_POINT('',(38.9215056,15.41549502,111.5));
#739 = LINE('',#740,#741);
#740 = CARTESIAN_POINT('',(19.36075286,15.41549502,111.5));
#741 = VECTOR('',#742,1.);
#742 = DIRECTION('',(1.,0.,-0.));
#743 = ORIENTED_EDGE('',*,*,#744,.F.);
#744 = EDGE_CURVE('',#745,#737,#747,.T.);
#745 = VERTEX_POINT('',#746);
#746 = CARTESIAN_POINT('',(38.9215056,15.61549502,111.5));
#747 = LINE('',#748,#749);
#748 = CARTESIAN_POINT('',(38.9215056,7.80774751,111.5));
#749 = VECTOR('',#750,1.);
#750 = DIRECTION('',(0.,-1.,0.));
#751 = ORIENTED_EDGE('',*,*,#752,.T.);
#752 = EDGE_CURVE('',#745,#753,#755,.T.);
#753 = VERTEX_POINT('',#754);
#754 = CARTESIAN_POINT('',(48.12150576,15.61549502,111.5));
#755 = LINE('',#756,#757);
#756 = CARTESIAN_POINT('',(19.4607528,15.61549502,111.5));
#757 = VECTOR('',#758,1.);
#758 = DIRECTION('',(1.,0.,-0.));
#759 = ORIENTED_EDGE('',*,*,#760,.T.);
#760 = EDGE_CURVE('',#753,#761,#763,.T.);
#761 = VERTEX_POINT('',#762);
#762 = CARTESIAN_POINT('',(48.12150576,15.41549502,111.5));
#763 = LINE('',#764,#765);
#764 = CARTESIAN_POINT('',(48.12150576,7.80774751,111.5));
#765 = VECTOR('',#766,1.);
#766 = DIRECTION('',(0.,-1.,0.));
#767 = ORIENTED_EDGE('',*,*,#768,.F.);
#768 = EDGE_CURVE('',#769,#761,#771,.T.);
#769 = VERTEX_POINT('',#770);
#770 = CARTESIAN_POINT('',(48.32150572,15.41549502,111.5));
#771 = LINE('',#772,#773);
#772 = CARTESIAN_POINT('',(24.16075286,15.41549502,111.5));
#773 = VECTOR('',#774,1.);
#774 = DIRECTION('',(-1.,0.,0.));
#775 = ORIENTED_EDGE('',*,*,#776,.T.);
#776 = EDGE_CURVE('',#769,#777,#779,.T.);
#777 = VERTEX_POINT('',#778);
#778 = CARTESIAN_POINT('',(48.32150572,4.21549483,111.5));
#779 = LINE('',#780,#781);
#780 = CARTESIAN_POINT('',(48.32150572,7.70774751,111.5));
#781 = VECTOR('',#782,1.);
#782 = DIRECTION('',(0.,-1.,0.));
#783 = ORIENTED_EDGE('',*,*,#784,.F.);
#784 = EDGE_CURVE('',#785,#777,#787,.T.);
#785 = VERTEX_POINT('',#786);
#786 = CARTESIAN_POINT('',(48.12150576,4.21549483,111.5));
#787 = LINE('',#788,#789);
#788 = CARTESIAN_POINT('',(24.06075288,4.21549483,111.5));
#789 = VECTOR('',#790,1.);
#790 = DIRECTION('',(1.,0.,-0.));
#791 = ORIENTED_EDGE('',*,*,#792,.T.);
#792 = EDGE_CURVE('',#785,#793,#795,.T.);
#793 = VERTEX_POINT('',#794);
#794 = CARTESIAN_POINT('',(48.12150576,4.015495,111.5));
#795 = LINE('',#796,#797);
#796 = CARTESIAN_POINT('',(48.12150576,2.107747415,111.5));
#797 = VECTOR('',#798,1.);
#798 = DIRECTION('',(0.,-1.,0.));
#799 = ORIENTED_EDGE('',*,*,#800,.T.);
#800 = EDGE_CURVE('',#793,#713,#801,.T.);
#801 = LINE('',#802,#803);
#802 = CARTESIAN_POINT('',(24.06075288,4.015495,111.5));
#803 = VECTOR('',#804,1.);
#804 = DIRECTION('',(-1.,0.,0.));
#805 = FACE_BOUND('',#806,.T.);
#806 = EDGE_LOOP('',(#807));
#807 = ORIENTED_EDGE('',*,*,#808,.T.);
#808 = EDGE_CURVE('',#809,#809,#811,.T.);
#809 = VERTEX_POINT('',#810);
#810 = CARTESIAN_POINT('',(64.00000078,16.74999975,111.5));
#811 = CIRCLE('',#812,3.25);
#812 = AXIS2_PLACEMENT_3D('',#813,#814,#815);
#813 = CARTESIAN_POINT('',(64.00000078,19.99999975,111.5));
#814 = DIRECTION('',(-0.,-0.,-1.));
#815 = DIRECTION('',(0.,-1.,0.));
#816 = PLANE('',#817);
#817 = AXIS2_PLACEMENT_3D('',#818,#819,#820);
#818 = CARTESIAN_POINT('',(0.,0.,111.5));
#819 = DIRECTION('',(0.,0.,1.));
#820 = DIRECTION('',(1.,0.,-0.));
#821 = ADVANCED_FACE('',(#822),#833,.T.);
#822 = FACE_BOUND('',#823,.T.);
#823 = EDGE_LOOP('',(#824,#825,#826,#827));
#824 = ORIENTED_EDGE('',*,*,#315,.T.);
#825 = ORIENTED_EDGE('',*,*,#90,.T.);
#826 = ORIENTED_EDGE('',*,*,#656,.F.);
#827 = ORIENTED_EDGE('',*,*,#828,.F.);
#828 = EDGE_CURVE('',#308,#649,#829,.T.);
#829 = LINE('',#830,#831);
#830 = CARTESIAN_POINT('',(60.00000078,-25.00000025,110.));
#831 = VECTOR('',#832,1.);
#832 = DIRECTION('',(0.,0.,1.));
#833 = CYLINDRICAL_SURFACE('',#834,10.);
#834 = AXIS2_PLACEMENT_3D('',#835,#836,#837);
#835 = CARTESIAN_POINT('',(60.00000078,-15.00000025,110.));
#836 = DIRECTION('',(-0.,0.,-1.));
#837 = DIRECTION('',(1.,0.,0.));
#838 = ADVANCED_FACE('',(#839),#850,.T.);
#839 = FACE_BOUND('',#840,.T.);
#840 = EDGE_LOOP('',(#841,#842,#848,#849));
#841 = ORIENTED_EDGE('',*,*,#145,.T.);
#842 = ORIENTED_EDGE('',*,*,#843,.T.);
#843 = EDGE_CURVE('',#146,#487,#844,.T.);
#844 = LINE('',#845,#846);
#845 = CARTESIAN_POINT('',(59.00000078,24.69999975,110.));
#846 = VECTOR('',#847,1.);
#847 = DIRECTION('',(0.,0.,1.));
#848 = ORIENTED_EDGE('',*,*,#486,.F.);
#849 = ORIENTED_EDGE('',*,*,#112,.F.);
#850 = CYLINDRICAL_SURFACE('',#851,0.3);
#851 = AXIS2_PLACEMENT_3D('',#852,#853,#854);
#852 = CARTESIAN_POINT('',(59.30000078,24.69999975,110.));
#853 = DIRECTION('',(-0.,0.,-1.));
#854 = DIRECTION('',(1.,0.,0.));
#855 = ADVANCED_FACE('',(#856),#867,.T.);
#856 = FACE_BOUND('',#857,.T.);
#857 = EDGE_LOOP('',(#858,#859,#860,#866));
#858 = ORIENTED_EDGE('',*,*,#828,.T.);
#859 = ORIENTED_EDGE('',*,*,#648,.T.);
#860 = ORIENTED_EDGE('',*,*,#861,.F.);
#861 = EDGE_CURVE('',#299,#640,#862,.T.);
#862 = LINE('',#863,#864);
#863 = CARTESIAN_POINT('',(59.30000078,-25.00000025,110.));
#864 = VECTOR('',#865,1.);
#865 = DIRECTION('',(0.,0.,1.));
#866 = ORIENTED_EDGE('',*,*,#307,.F.);
#867 = PLANE('',#868);
#868 = AXIS2_PLACEMENT_3D('',#869,#870,#871);
#869 = CARTESIAN_POINT('',(60.00000078,-25.00000025,110.));
#870 = DIRECTION('',(0.,-1.,0.));
#871 = DIRECTION('',(-1.,0.,0.));
#872 = ADVANCED_FACE('',(#873),#884,.F.);
#873 = FACE_BOUND('',#874,.F.);
#874 = EDGE_LOOP('',(#875,#876,#877,#883));
#875 = ORIENTED_EDGE('',*,*,#843,.T.);
#876 = ORIENTED_EDGE('',*,*,#495,.T.);
#877 = ORIENTED_EDGE('',*,*,#878,.F.);
#878 = EDGE_CURVE('',#155,#496,#879,.T.);
#879 = LINE('',#880,#881);
#880 = CARTESIAN_POINT('',(59.00000078,24.59999975,110.));
#881 = VECTOR('',#882,1.);
#882 = DIRECTION('',(0.,0.,1.));
#883 = ORIENTED_EDGE('',*,*,#154,.F.);
#884 = PLANE('',#885);
#885 = AXIS2_PLACEMENT_3D('',#886,#887,#888);
#886 = CARTESIAN_POINT('',(59.00000078,24.69999975,110.));
#887 = DIRECTION('',(1.,0.,-0.));
#888 = DIRECTION('',(0.,-1.,0.));
#889 = ADVANCED_FACE('',(#890),#901,.T.);
#890 = FACE_BOUND('',#891,.T.);
#891 = EDGE_LOOP('',(#892,#893,#894,#895));
#892 = ORIENTED_EDGE('',*,*,#298,.T.);
#893 = ORIENTED_EDGE('',*,*,#861,.T.);
#894 = ORIENTED_EDGE('',*,*,#639,.F.);
#895 = ORIENTED_EDGE('',*,*,#896,.F.);
#896 = EDGE_CURVE('',#291,#632,#897,.T.);
#897 = LINE('',#898,#899);
#898 = CARTESIAN_POINT('',(59.00000078,-24.70000025,110.));
#899 = VECTOR('',#900,1.);
#900 = DIRECTION('',(0.,0.,1.));
#901 = CYLINDRICAL_SURFACE('',#902,0.3);
#902 = AXIS2_PLACEMENT_3D('',#903,#904,#905);
#903 = CARTESIAN_POINT('',(59.30000078,-24.70000025,110.));
#904 = DIRECTION('',(-0.,0.,-1.));
#905 = DIRECTION('',(1.,0.,0.));
#906 = ADVANCED_FACE('',(#907),#918,.F.);
#907 = FACE_BOUND('',#908,.F.);
#908 = EDGE_LOOP('',(#909,#910,#911,#912));
#909 = ORIENTED_EDGE('',*,*,#162,.T.);
#910 = ORIENTED_EDGE('',*,*,#878,.T.);
#911 = ORIENTED_EDGE('',*,*,#503,.F.);
#912 = ORIENTED_EDGE('',*,*,#913,.F.);
#913 = EDGE_CURVE('',#163,#504,#914,.T.);
#914 = LINE('',#915,#916);
#915 = CARTESIAN_POINT('',(58.50000078,24.09999975,110.));
#916 = VECTOR('',#917,1.);
#917 = DIRECTION('',(0.,0.,1.));
#918 = CYLINDRICAL_SURFACE('',#919,0.5);
#919 = AXIS2_PLACEMENT_3D('',#920,#921,#922);
#920 = CARTESIAN_POINT('',(58.50000078,24.59999975,110.));
#921 = DIRECTION('',(-0.,0.,-1.));
#922 = DIRECTION('',(1.,0.,0.));
#923 = ADVANCED_FACE('',(#924),#935,.F.);
#924 = FACE_BOUND('',#925,.F.);
#925 = EDGE_LOOP('',(#926,#932,#933,#934));
#926 = ORIENTED_EDGE('',*,*,#927,.T.);
#927 = EDGE_CURVE('',#282,#623,#928,.T.);
#928 = LINE('',#929,#930);
#929 = CARTESIAN_POINT('',(59.00000078,-24.60000025,110.));
#930 = VECTOR('',#931,1.);
#931 = DIRECTION('',(0.,0.,1.));
#932 = ORIENTED_EDGE('',*,*,#631,.T.);
#933 = ORIENTED_EDGE('',*,*,#896,.F.);
#934 = ORIENTED_EDGE('',*,*,#290,.F.);
#935 = PLANE('',#936);
#936 = AXIS2_PLACEMENT_3D('',#937,#938,#939);
#937 = CARTESIAN_POINT('',(59.00000078,-24.60000025,110.));
#938 = DIRECTION('',(1.,0.,-0.));
#939 = DIRECTION('',(0.,-1.,0.));
#940 = ADVANCED_FACE('',(#941),#952,.F.);
#941 = FACE_BOUND('',#942,.F.);
#942 = EDGE_LOOP('',(#943,#944,#945,#951));
#943 = ORIENTED_EDGE('',*,*,#913,.T.);
#944 = ORIENTED_EDGE('',*,*,#512,.T.);
#945 = ORIENTED_EDGE('',*,*,#946,.F.);
#946 = EDGE_CURVE('',#172,#513,#947,.T.);
#947 = LINE('',#948,#949);
#948 = CARTESIAN_POINT('',(-58.49999922,24.09999975,110.));
#949 = VECTOR('',#950,1.);
#950 = DIRECTION('',(0.,0.,1.));
#951 = ORIENTED_EDGE('',*,*,#171,.F.);
#952 = PLANE('',#953);
#953 = AXIS2_PLACEMENT_3D('',#954,#955,#956);
#954 = CARTESIAN_POINT('',(58.50000078,24.09999975,110.));
#955 = DIRECTION('',(0.,-1.,0.));
#956 = DIRECTION('',(-1.,0.,0.));
#957 = ADVANCED_FACE('',(#958),#969,.F.);
#958 = FACE_BOUND('',#959,.F.);
#959 = EDGE_LOOP('',(#960,#961,#967,#968));
#960 = ORIENTED_EDGE('',*,*,#281,.T.);
#961 = ORIENTED_EDGE('',*,*,#962,.T.);
#962 = EDGE_CURVE('',#274,#615,#963,.T.);
#963 = LINE('',#964,#965);
#964 = CARTESIAN_POINT('',(58.50000078,-24.10000025,110.));
#965 = VECTOR('',#966,1.);
#966 = DIRECTION('',(0.,0.,1.));
#967 = ORIENTED_EDGE('',*,*,#622,.F.);
#968 = ORIENTED_EDGE('',*,*,#927,.F.);
#969 = CYLINDRICAL_SURFACE('',#970,0.5);
#970 = AXIS2_PLACEMENT_3D('',#971,#972,#973);
#971 = CARTESIAN_POINT('',(58.50000078,-24.60000025,110.));
#972 = DIRECTION('',(-0.,0.,-1.));
#973 = DIRECTION('',(1.,0.,0.));
#974 = ADVANCED_FACE('',(#975),#986,.F.);
#975 = FACE_BOUND('',#976,.F.);
#976 = EDGE_LOOP('',(#977,#978,#979,#980));
#977 = ORIENTED_EDGE('',*,*,#179,.T.);
#978 = ORIENTED_EDGE('',*,*,#946,.T.);
#979 = ORIENTED_EDGE('',*,*,#520,.F.);
#980 = ORIENTED_EDGE('',*,*,#981,.F.);
#981 = EDGE_CURVE('',#180,#521,#982,.T.);
#982 = LINE('',#983,#984);
#983 = CARTESIAN_POINT('',(-58.99999922,24.59999975,110.));
#984 = VECTOR('',#985,1.);
#985 = DIRECTION('',(0.,0.,1.));
#986 = CYLINDRICAL_SURFACE('',#987,0.5);
#987 = AXIS2_PLACEMENT_3D('',#988,#989,#990);
#988 = CARTESIAN_POINT('',(-58.49999922,24.59999975,110.));
#989 = DIRECTION('',(-0.,0.,-1.));
#990 = DIRECTION('',(1.,0.,0.));
#991 = ADVANCED_FACE('',(#992),#1003,.F.);
#992 = FACE_BOUND('',#993,.F.);
#993 = EDGE_LOOP('',(#994,#1000,#1001,#1002));
#994 = ORIENTED_EDGE('',*,*,#995,.T.);
#995 = EDGE_CURVE('',#265,#606,#996,.T.);
#996 = LINE('',#997,#998);
#997 = CARTESIAN_POINT('',(-58.49999922,-24.10000025,110.));
#998 = VECTOR('',#999,1.);
#999 = DIRECTION('',(0.,0.,1.));
#1000 = ORIENTED_EDGE('',*,*,#614,.T.);
#1001 = ORIENTED_EDGE('',*,*,#962,.F.);
#1002 = ORIENTED_EDGE('',*,*,#273,.F.);
#1003 = PLANE('',#1004);
#1004 = AXIS2_PLACEMENT_3D('',#1005,#1006,#1007);
#1005 = CARTESIAN_POINT('',(-58.49999922,-24.10000025,110.));
#1006 = DIRECTION('',(0.,1.,0.));
#1007 = DIRECTION('',(1.,0.,0.));
#1008 = ADVANCED_FACE('',(#1009),#1020,.F.);
#1009 = FACE_BOUND('',#1010,.F.);
#1010 = EDGE_LOOP('',(#1011,#1012,#1013,#1019));
#1011 = ORIENTED_EDGE('',*,*,#981,.T.);
#1012 = ORIENTED_EDGE('',*,*,#529,.T.);
#1013 = ORIENTED_EDGE('',*,*,#1014,.F.);
#1014 = EDGE_CURVE('',#189,#530,#1015,.T.);
#1015 = LINE('',#1016,#1017);
#1016 = CARTESIAN_POINT('',(-58.99999922,24.69999975,110.));
#1017 = VECTOR('',#1018,1.);
#1018 = DIRECTION('',(0.,0.,1.));
#1019 = ORIENTED_EDGE('',*,*,#188,.F.);
#1020 = PLANE('',#1021);
#1021 = AXIS2_PLACEMENT_3D('',#1022,#1023,#1024);
#1022 = CARTESIAN_POINT('',(-58.99999922,24.59999975,110.));
#1023 = DIRECTION('',(-1.,0.,0.));
#1024 = DIRECTION('',(0.,1.,0.));
#1025 = ADVANCED_FACE('',(#1026),#1037,.F.);
#1026 = FACE_BOUND('',#1027,.F.);
#1027 = EDGE_LOOP('',(#1028,#1029,#1035,#1036));
#1028 = ORIENTED_EDGE('',*,*,#264,.T.);
#1029 = ORIENTED_EDGE('',*,*,#1030,.T.);
#1030 = EDGE_CURVE('',#257,#598,#1031,.T.);
#1031 = LINE('',#1032,#1033);
#1032 = CARTESIAN_POINT('',(-58.99999922,-24.60000025,110.));
#1033 = VECTOR('',#1034,1.);
#1034 = DIRECTION('',(0.,0.,1.));
#1035 = ORIENTED_EDGE('',*,*,#605,.F.);
#1036 = ORIENTED_EDGE('',*,*,#995,.F.);
#1037 = CYLINDRICAL_SURFACE('',#1038,0.5);
#1038 = AXIS2_PLACEMENT_3D('',#1039,#1040,#1041);
#1039 = CARTESIAN_POINT('',(-58.49999922,-24.60000025,110.));
#1040 = DIRECTION('',(-0.,0.,-1.));
#1041 = DIRECTION('',(1.,0.,0.));
#1042 = ADVANCED_FACE('',(#1043),#1054,.T.);
#1043 = FACE_BOUND('',#1044,.T.);
#1044 = EDGE_LOOP('',(#1045,#1046,#1052,#1053));
#1045 = ORIENTED_EDGE('',*,*,#196,.T.);
#1046 = ORIENTED_EDGE('',*,*,#1047,.T.);
#1047 = EDGE_CURVE('',#197,#538,#1048,.T.);
#1048 = LINE('',#1049,#1050);
#1049 = CARTESIAN_POINT('',(-59.29999922,24.99999975,110.));
#1050 = VECTOR('',#1051,1.);
#1051 = DIRECTION('',(0.,0.,1.));
#1052 = ORIENTED_EDGE('',*,*,#537,.F.);
#1053 = ORIENTED_EDGE('',*,*,#1014,.F.);
#1054 = CYLINDRICAL_SURFACE('',#1055,0.3);
#1055 = AXIS2_PLACEMENT_3D('',#1056,#1057,#1058);
#1056 = CARTESIAN_POINT('',(-59.29999922,24.69999975,110.));
#1057 = DIRECTION('',(-0.,0.,-1.));
#1058 = DIRECTION('',(1.,0.,0.));
#1059 = ADVANCED_FACE('',(#1060),#1071,.F.);
#1060 = FACE_BOUND('',#1061,.F.);
#1061 = EDGE_LOOP('',(#1062,#1068,#1069,#1070));
#1062 = ORIENTED_EDGE('',*,*,#1063,.T.);
#1063 = EDGE_CURVE('',#248,#589,#1064,.T.);
#1064 = LINE('',#1065,#1066);
#1065 = CARTESIAN_POINT('',(-58.99999922,-24.70000025,110.));
#1066 = VECTOR('',#1067,1.);
#1067 = DIRECTION('',(0.,0.,1.));
#1068 = ORIENTED_EDGE('',*,*,#597,.T.);
#1069 = ORIENTED_EDGE('',*,*,#1030,.F.);
#1070 = ORIENTED_EDGE('',*,*,#256,.F.);
#1071 = PLANE('',#1072);
#1072 = AXIS2_PLACEMENT_3D('',#1073,#1074,#1075);
#1073 = CARTESIAN_POINT('',(-58.99999922,-24.70000025,110.));
#1074 = DIRECTION('',(-1.,0.,0.));
#1075 = DIRECTION('',(0.,1.,0.));
#1076 = ADVANCED_FACE('',(#1077),#1088,.T.);
#1077 = FACE_BOUND('',#1078,.T.);
#1078 = EDGE_LOOP('',(#1079,#1085,#1086,#1087));
#1079 = ORIENTED_EDGE('',*,*,#1080,.T.);
#1080 = EDGE_CURVE('',#206,#547,#1081,.T.);
#1081 = LINE('',#1082,#1083);
#1082 = CARTESIAN_POINT('',(-59.99999922,24.99999975,110.));
#1083 = VECTOR('',#1084,1.);
#1084 = DIRECTION('',(0.,0.,1.));
#1085 = ORIENTED_EDGE('',*,*,#546,.T.);
#1086 = ORIENTED_EDGE('',*,*,#1047,.F.);
#1087 = ORIENTED_EDGE('',*,*,#205,.F.);
#1088 = PLANE('',#1089);
#1089 = AXIS2_PLACEMENT_3D('',#1090,#1091,#1092);
#1090 = CARTESIAN_POINT('',(-59.99999922,24.99999975,110.));
#1091 = DIRECTION('',(0.,1.,0.));
#1092 = DIRECTION('',(1.,0.,0.));
#1093 = ADVANCED_FACE('',(#1094),#1105,.T.);
#1094 = FACE_BOUND('',#1095,.T.);
#1095 = EDGE_LOOP('',(#1096,#1097,#1098,#1099));
#1096 = ORIENTED_EDGE('',*,*,#247,.T.);
#1097 = ORIENTED_EDGE('',*,*,#1063,.T.);
#1098 = ORIENTED_EDGE('',*,*,#588,.F.);
#1099 = ORIENTED_EDGE('',*,*,#1100,.F.);
#1100 = EDGE_CURVE('',#240,#581,#1101,.T.);
#1101 = LINE('',#1102,#1103);
#1102 = CARTESIAN_POINT('',(-59.29999922,-25.00000025,110.));
#1103 = VECTOR('',#1104,1.);
#1104 = DIRECTION('',(0.,0.,1.));
#1105 = CYLINDRICAL_SURFACE('',#1106,0.3);
#1106 = AXIS2_PLACEMENT_3D('',#1107,#1108,#1109);
#1107 = CARTESIAN_POINT('',(-59.29999922,-24.70000025,110.));
#1108 = DIRECTION('',(-0.,0.,-1.));
#1109 = DIRECTION('',(1.,0.,0.));
#1110 = ADVANCED_FACE('',(#1111),#1122,.T.);
#1111 = FACE_BOUND('',#1112,.T.);
#1112 = EDGE_LOOP('',(#1113,#1114,#1120,#1121));
#1113 = ORIENTED_EDGE('',*,*,#213,.T.);
#1114 = ORIENTED_EDGE('',*,*,#1115,.T.);
#1115 = EDGE_CURVE('',#214,#555,#1116,.T.);
#1116 = LINE('',#1117,#1118);
#1117 = CARTESIAN_POINT('',(-69.99999922,14.99999975,110.));
#1118 = VECTOR('',#1119,1.);
#1119 = DIRECTION('',(0.,0.,1.));
#1120 = ORIENTED_EDGE('',*,*,#554,.F.);
#1121 = ORIENTED_EDGE('',*,*,#1080,.F.);
#1122 = CYLINDRICAL_SURFACE('',#1123,10.);
#1123 = AXIS2_PLACEMENT_3D('',#1124,#1125,#1126);
#1124 = CARTESIAN_POINT('',(-59.99999922,14.99999975,110.));
#1125 = DIRECTION('',(-0.,0.,-1.));
#1126 = DIRECTION('',(1.,0.,0.));
#1127 = ADVANCED_FACE('',(#1128),#1139,.T.);
#1128 = FACE_BOUND('',#1129,.T.);
#1129 = EDGE_LOOP('',(#1130,#1131,#1132,#1138));
#1130 = ORIENTED_EDGE('',*,*,#1100,.T.);
#1131 = ORIENTED_EDGE('',*,*,#580,.T.);
#1132 = ORIENTED_EDGE('',*,*,#1133,.F.);
#1133 = EDGE_CURVE('',#231,#572,#1134,.T.);
#1134 = LINE('',#1135,#1136);
#1135 = CARTESIAN_POINT('',(-59.99999922,-25.00000025,110.));
#1136 = VECTOR('',#1137,1.);
#1137 = DIRECTION('',(0.,0.,1.));
#1138 = ORIENTED_EDGE('',*,*,#239,.F.);
#1139 = PLANE('',#1140);
#1140 = AXIS2_PLACEMENT_3D('',#1141,#1142,#1143);
#1141 = CARTESIAN_POINT('',(-59.29999922,-25.00000025,110.));
#1142 = DIRECTION('',(0.,-1.,0.));
#1143 = DIRECTION('',(-1.,0.,0.));
#1144 = ADVANCED_FACE('',(#1145),#1156,.T.);
#1145 = FACE_BOUND('',#1146,.T.);
#1146 = EDGE_LOOP('',(#1147,#1153,#1154,#1155));
#1147 = ORIENTED_EDGE('',*,*,#1148,.T.);
#1148 = EDGE_CURVE('',#223,#564,#1149,.T.);
#1149 = LINE('',#1150,#1151);
#1150 = CARTESIAN_POINT('',(-69.99999922,-15.00000025,110.));
#1151 = VECTOR('',#1152,1.);
#1152 = DIRECTION('',(0.,0.,1.));
#1153 = ORIENTED_EDGE('',*,*,#563,.T.);
#1154 = ORIENTED_EDGE('',*,*,#1115,.F.);
#1155 = ORIENTED_EDGE('',*,*,#222,.F.);
#1156 = PLANE('',#1157);
#1157 = AXIS2_PLACEMENT_3D('',#1158,#1159,#1160);
#1158 = CARTESIAN_POINT('',(-69.99999922,-15.00000025,110.));
#1159 = DIRECTION('',(-1.,0.,0.));
#1160 = DIRECTION('',(0.,1.,0.));
#1161 = ADVANCED_FACE('',(#1162),#1168,.T.);
#1162 = FACE_BOUND('',#1163,.T.);
#1163 = EDGE_LOOP('',(#1164,#1165,#1166,#1167));
#1164 = ORIENTED_EDGE('',*,*,#230,.T.);
#1165 = ORIENTED_EDGE('',*,*,#1133,.T.);
#1166 = ORIENTED_EDGE('',*,*,#571,.F.);
#1167 = ORIENTED_EDGE('',*,*,#1148,.F.);
#1168 = CYLINDRICAL_SURFACE('',#1169,10.);
#1169 = AXIS2_PLACEMENT_3D('',#1170,#1171,#1172);
#1170 = CARTESIAN_POINT('',(-59.99999922,-15.00000025,110.));
#1171 = DIRECTION('',(-0.,0.,-1.));
#1172 = DIRECTION('',(1.,0.,0.));
#1173 = ADVANCED_FACE('',(#1174),#1185,.F.);
#1174 = FACE_BOUND('',#1175,.F.);
#1175 = EDGE_LOOP('',(#1176,#1182,#1183,#1184));
#1176 = ORIENTED_EDGE('',*,*,#1177,.T.);
#1177 = EDGE_CURVE('',#326,#667,#1178,.T.);
#1178 = LINE('',#1179,#1180);
#1179 = CARTESIAN_POINT('',(-63.99999922,-21.70000025,109.95));
#1180 = VECTOR('',#1181,1.);
#1181 = DIRECTION('',(0.,-0.707106781187,0.707106781187));
#1182 = ORIENTED_EDGE('',*,*,#666,.T.);
#1183 = ORIENTED_EDGE('',*,*,#1177,.F.);
#1184 = ORIENTED_EDGE('',*,*,#325,.T.);
#1185 = CONICAL_SURFACE('',#1186,1.7,0.785398163397);
#1186 = AXIS2_PLACEMENT_3D('',#1187,#1188,#1189);
#1187 = CARTESIAN_POINT('',(-63.99999922,-20.00000025,109.95));
#1188 = DIRECTION('',(0.,0.,1.));
#1189 = DIRECTION('',(0.,-1.,0.));
#1190 = ADVANCED_FACE('',(#1191),#1202,.F.);
#1191 = FACE_BOUND('',#1192,.F.);
#1192 = EDGE_LOOP('',(#1193,#1199,#1200,#1201));
#1193 = ORIENTED_EDGE('',*,*,#1194,.T.);
#1194 = EDGE_CURVE('',#337,#678,#1195,.T.);
#1195 = LINE('',#1196,#1197);
#1196 = CARTESIAN_POINT('',(64.00000078,-21.70000025,109.95));
#1197 = VECTOR('',#1198,1.);
#1198 = DIRECTION('',(0.,-0.707106781187,0.707106781187));
#1199 = ORIENTED_EDGE('',*,*,#677,.T.);
#1200 = ORIENTED_EDGE('',*,*,#1194,.F.);
#1201 = ORIENTED_EDGE('',*,*,#336,.T.);
#1202 = CONICAL_SURFACE('',#1203,1.7,0.785398163397);
#1203 = AXIS2_PLACEMENT_3D('',#1204,#1205,#1206);
#1204 = CARTESIAN_POINT('',(64.00000078,-20.00000025,109.95));
#1205 = DIRECTION('',(0.,0.,1.));
#1206 = DIRECTION('',(0.,-1.,0.));
#1207 = ADVANCED_FACE('',(#1208),#1219,.F.);
#1208 = FACE_BOUND('',#1209,.F.);
#1209 = EDGE_LOOP('',(#1210,#1216,#1217,#1218));
#1210 = ORIENTED_EDGE('',*,*,#1211,.T.);
#1211 = EDGE_CURVE('',#689,#348,#1212,.T.);
#1212 = LINE('',#1213,#1214);
#1213 = CARTESIAN_POINT('',(-45.64094666,8.8154949,121.5));
#1214 = VECTOR('',#1215,1.);
#1215 = DIRECTION('',(-0.,-0.,-1.));
#1216 = ORIENTED_EDGE('',*,*,#347,.T.);
#1217 = ORIENTED_EDGE('',*,*,#1211,.F.);
#1218 = ORIENTED_EDGE('',*,*,#688,.T.);
#1219 = CYLINDRICAL_SURFACE('',#1220,3.15);
#1220 = AXIS2_PLACEMENT_3D('',#1221,#1222,#1223);
#1221 = CARTESIAN_POINT('',(-48.79094666,8.8154949,121.5));
#1222 = DIRECTION('',(0.,-0.,1.));
#1223 = DIRECTION('',(1.,0.,0.));
#1224 = ADVANCED_FACE('',(#1225),#1236,.F.);
#1225 = FACE_BOUND('',#1226,.F.);
#1226 = EDGE_LOOP('',(#1227,#1233,#1234,#1235));
#1227 = ORIENTED_EDGE('',*,*,#1228,.T.);
#1228 = EDGE_CURVE('',#359,#700,#1229,.T.);
#1229 = LINE('',#1230,#1231);
#1230 = CARTESIAN_POINT('',(-63.99999922,18.29999975,109.95));
#1231 = VECTOR('',#1232,1.);
#1232 = DIRECTION('',(0.,-0.707106781187,0.707106781187));
#1233 = ORIENTED_EDGE('',*,*,#699,.T.);
#1234 = ORIENTED_EDGE('',*,*,#1228,.F.);
#1235 = ORIENTED_EDGE('',*,*,#358,.T.);
#1236 = CONICAL_SURFACE('',#1237,1.7,0.785398163397);
#1237 = AXIS2_PLACEMENT_3D('',#1238,#1239,#1240);
#1238 = CARTESIAN_POINT('',(-63.99999922,19.99999975,109.95));
#1239 = DIRECTION('',(0.,0.,1.));
#1240 = DIRECTION('',(0.,-1.,0.));
#1241 = ADVANCED_FACE('',(#1242),#1258,.F.);
#1242 = FACE_BOUND('',#1243,.F.);
#1243 = EDGE_LOOP('',(#1244,#1245,#1251,#1252));
#1244 = ORIENTED_EDGE('',*,*,#710,.F.);
#1245 = ORIENTED_EDGE('',*,*,#1246,.T.);
#1246 = EDGE_CURVE('',#711,#370,#1247,.T.);
#1247 = LINE('',#1248,#1249);
#1248 = CARTESIAN_POINT('',(38.9215056,4.21549483,121.5));
#1249 = VECTOR('',#1250,1.);
#1250 = DIRECTION('',(-0.,-0.,-1.));
#1251 = ORIENTED_EDGE('',*,*,#369,.T.);
#1252 = ORIENTED_EDGE('',*,*,#1253,.F.);
#1253 = EDGE_CURVE('',#713,#372,#1254,.T.);
#1254 = LINE('',#1255,#1256);
#1255 = CARTESIAN_POINT('',(38.9215056,4.015495,121.5));
#1256 = VECTOR('',#1257,1.);
#1257 = DIRECTION('',(-0.,-0.,-1.));
#1258 = PLANE('',#1259);
#1259 = AXIS2_PLACEMENT_3D('',#1260,#1261,#1262);
#1260 = CARTESIAN_POINT('',(38.9215056,4.21549483,121.5));
#1261 = DIRECTION('',(-1.,-0.,0.));
#1262 = DIRECTION('',(0.,-1.,-0.));
#1263 = ADVANCED_FACE('',(#1264),#1275,.T.);
#1264 = FACE_BOUND('',#1265,.T.);
#1265 = EDGE_LOOP('',(#1266,#1267,#1268,#1269));
#1266 = ORIENTED_EDGE('',*,*,#720,.F.);
#1267 = ORIENTED_EDGE('',*,*,#1246,.T.);
#1268 = ORIENTED_EDGE('',*,*,#379,.T.);
#1269 = ORIENTED_EDGE('',*,*,#1270,.F.);
#1270 = EDGE_CURVE('',#721,#380,#1271,.T.);
#1271 = LINE('',#1272,#1273);
#1272 = CARTESIAN_POINT('',(38.72150572,4.21549483,121.5));
#1273 = VECTOR('',#1274,1.);
#1274 = DIRECTION('',(-0.,-0.,-1.));
#1275 = PLANE('',#1276);
#1276 = AXIS2_PLACEMENT_3D('',#1277,#1278,#1279);
#1277 = CARTESIAN_POINT('',(38.9215056,4.21549483,121.5));
#1278 = DIRECTION('',(0.,1.,-0.));
#1279 = DIRECTION('',(-1.,0.,0.));
#1280 = ADVANCED_FACE('',(#1281),#1292,.T.);
#1281 = FACE_BOUND('',#1282,.T.);
#1282 = EDGE_LOOP('',(#1283,#1284,#1290,#1291));
#1283 = ORIENTED_EDGE('',*,*,#800,.F.);
#1284 = ORIENTED_EDGE('',*,*,#1285,.T.);
#1285 = EDGE_CURVE('',#793,#452,#1286,.T.);
#1286 = LINE('',#1287,#1288);
#1287 = CARTESIAN_POINT('',(48.12150576,4.015495,121.5));
#1288 = VECTOR('',#1289,1.);
#1289 = DIRECTION('',(-0.,-0.,-1.));
#1290 = ORIENTED_EDGE('',*,*,#459,.T.);
#1291 = ORIENTED_EDGE('',*,*,#1253,.F.);
#1292 = PLANE('',#1293);
#1293 = AXIS2_PLACEMENT_3D('',#1294,#1295,#1296);
#1294 = CARTESIAN_POINT('',(48.12150576,4.015495,121.5));
#1295 = DIRECTION('',(0.,1.,-0.));
#1296 = DIRECTION('',(-1.,0.,0.));
#1297 = ADVANCED_FACE('',(#1298),#1309,.T.);
#1298 = FACE_BOUND('',#1299,.T.);
#1299 = EDGE_LOOP('',(#1300,#1301,#1302,#1303));
#1300 = ORIENTED_EDGE('',*,*,#728,.F.);
#1301 = ORIENTED_EDGE('',*,*,#1270,.T.);
#1302 = ORIENTED_EDGE('',*,*,#387,.T.);
#1303 = ORIENTED_EDGE('',*,*,#1304,.F.);
#1304 = EDGE_CURVE('',#729,#388,#1305,.T.);
#1305 = LINE('',#1306,#1307);
#1306 = CARTESIAN_POINT('',(38.72150572,15.41549502,121.5));
#1307 = VECTOR('',#1308,1.);
#1308 = DIRECTION('',(-0.,-0.,-1.));
#1309 = PLANE('',#1310);
#1310 = AXIS2_PLACEMENT_3D('',#1311,#1312,#1313);
#1311 = CARTESIAN_POINT('',(38.72150572,4.21549483,121.5));
#1312 = DIRECTION('',(1.,0.,0.));
#1313 = DIRECTION('',(-0.,1.,0.));
#1314 = ADVANCED_FACE('',(#1315),#1326,.T.);
#1315 = FACE_BOUND('',#1316,.T.);
#1316 = EDGE_LOOP('',(#1317,#1318,#1324,#1325));
#1317 = ORIENTED_EDGE('',*,*,#792,.F.);
#1318 = ORIENTED_EDGE('',*,*,#1319,.T.);
#1319 = EDGE_CURVE('',#785,#444,#1320,.T.);
#1320 = LINE('',#1321,#1322);
#1321 = CARTESIAN_POINT('',(48.12150576,4.21549483,121.5));
#1322 = VECTOR('',#1323,1.);
#1323 = DIRECTION('',(-0.,-0.,-1.));
#1324 = ORIENTED_EDGE('',*,*,#451,.T.);
#1325 = ORIENTED_EDGE('',*,*,#1285,.F.);
#1326 = PLANE('',#1327);
#1327 = AXIS2_PLACEMENT_3D('',#1328,#1329,#1330);
#1328 = CARTESIAN_POINT('',(48.12150576,4.21549483,121.5));
#1329 = DIRECTION('',(-1.,-0.,0.));
#1330 = DIRECTION('',(0.,-1.,-0.));
#1331 = ADVANCED_FACE('',(#1332),#1343,.T.);
#1332 = FACE_BOUND('',#1333,.T.);
#1333 = EDGE_LOOP('',(#1334,#1335,#1336,#1337));
#1334 = ORIENTED_EDGE('',*,*,#736,.F.);
#1335 = ORIENTED_EDGE('',*,*,#1304,.T.);
#1336 = ORIENTED_EDGE('',*,*,#395,.T.);
#1337 = ORIENTED_EDGE('',*,*,#1338,.F.);
#1338 = EDGE_CURVE('',#737,#396,#1339,.T.);
#1339 = LINE('',#1340,#1341);
#1340 = CARTESIAN_POINT('',(38.9215056,15.41549502,121.5));
#1341 = VECTOR('',#1342,1.);
#1342 = DIRECTION('',(-0.,-0.,-1.));
#1343 = PLANE('',#1344);
#1344 = AXIS2_PLACEMENT_3D('',#1345,#1346,#1347);
#1345 = CARTESIAN_POINT('',(38.72150572,15.41549502,121.5));
#1346 = DIRECTION('',(0.,-1.,0.));
#1347 = DIRECTION('',(1.,0.,0.));
#1348 = ADVANCED_FACE('',(#1349),#1360,.F.);
#1349 = FACE_BOUND('',#1350,.F.);
#1350 = EDGE_LOOP('',(#1351,#1352,#1353,#1354));
#1351 = ORIENTED_EDGE('',*,*,#784,.F.);
#1352 = ORIENTED_EDGE('',*,*,#1319,.T.);
#1353 = ORIENTED_EDGE('',*,*,#443,.T.);
#1354 = ORIENTED_EDGE('',*,*,#1355,.F.);
#1355 = EDGE_CURVE('',#777,#436,#1356,.T.);
#1356 = LINE('',#1357,#1358);
#1357 = CARTESIAN_POINT('',(48.32150572,4.21549483,121.5));
#1358 = VECTOR('',#1359,1.);
#1359 = DIRECTION('',(-0.,-0.,-1.));
#1360 = PLANE('',#1361);
#1361 = AXIS2_PLACEMENT_3D('',#1362,#1363,#1364);
#1362 = CARTESIAN_POINT('',(48.12150576,4.21549483,121.5));
#1363 = DIRECTION('',(0.,-1.,0.));
#1364 = DIRECTION('',(1.,0.,0.));
#1365 = ADVANCED_FACE('',(#1366),#1377,.F.);
#1366 = FACE_BOUND('',#1367,.F.);
#1367 = EDGE_LOOP('',(#1368,#1369,#1375,#1376));
#1368 = ORIENTED_EDGE('',*,*,#744,.F.);
#1369 = ORIENTED_EDGE('',*,*,#1370,.T.);
#1370 = EDGE_CURVE('',#745,#404,#1371,.T.);
#1371 = LINE('',#1372,#1373);
#1372 = CARTESIAN_POINT('',(38.9215056,15.61549502,121.5));
#1373 = VECTOR('',#1374,1.);
#1374 = DIRECTION('',(-0.,-0.,-1.));
#1375 = ORIENTED_EDGE('',*,*,#403,.T.);
#1376 = ORIENTED_EDGE('',*,*,#1338,.F.);
#1377 = PLANE('',#1378);
#1378 = AXIS2_PLACEMENT_3D('',#1379,#1380,#1381);
#1379 = CARTESIAN_POINT('',(38.9215056,15.61549502,121.5));
#1380 = DIRECTION('',(-1.,-0.,0.));
#1381 = DIRECTION('',(0.,-1.,-0.));
#1382 = ADVANCED_FACE('',(#1383),#1394,.T.);
#1383 = FACE_BOUND('',#1384,.T.);
#1384 = EDGE_LOOP('',(#1385,#1386,#1392,#1393));
#1385 = ORIENTED_EDGE('',*,*,#776,.F.);
#1386 = ORIENTED_EDGE('',*,*,#1387,.T.);
#1387 = EDGE_CURVE('',#769,#428,#1388,.T.);
#1388 = LINE('',#1389,#1390);
#1389 = CARTESIAN_POINT('',(48.32150572,15.41549502,121.5));
#1390 = VECTOR('',#1391,1.);
#1391 = DIRECTION('',(-0.,-0.,-1.));
#1392 = ORIENTED_EDGE('',*,*,#435,.T.);
#1393 = ORIENTED_EDGE('',*,*,#1355,.F.);
#1394 = PLANE('',#1395);
#1395 = AXIS2_PLACEMENT_3D('',#1396,#1397,#1398);
#1396 = CARTESIAN_POINT('',(48.32150572,15.41549502,121.5));
#1397 = DIRECTION('',(-1.,-0.,0.));
#1398 = DIRECTION('',(0.,-1.,-0.));
#1399 = ADVANCED_FACE('',(#1400),#1411,.T.);
#1400 = FACE_BOUND('',#1401,.T.);
#1401 = EDGE_LOOP('',(#1402,#1403,#1404,#1405));
#1402 = ORIENTED_EDGE('',*,*,#752,.F.);
#1403 = ORIENTED_EDGE('',*,*,#1370,.T.);
#1404 = ORIENTED_EDGE('',*,*,#411,.T.);
#1405 = ORIENTED_EDGE('',*,*,#1406,.F.);
#1406 = EDGE_CURVE('',#753,#412,#1407,.T.);
#1407 = LINE('',#1408,#1409);
#1408 = CARTESIAN_POINT('',(48.12150576,15.61549502,121.5));
#1409 = VECTOR('',#1410,1.);
#1410 = DIRECTION('',(-0.,-0.,-1.));
#1411 = PLANE('',#1412);
#1412 = AXIS2_PLACEMENT_3D('',#1413,#1414,#1415);
#1413 = CARTESIAN_POINT('',(38.9215056,15.61549502,121.5));
#1414 = DIRECTION('',(0.,-1.,0.));
#1415 = DIRECTION('',(1.,0.,0.));
#1416 = ADVANCED_FACE('',(#1417),#1428,.F.);
#1417 = FACE_BOUND('',#1418,.F.);
#1418 = EDGE_LOOP('',(#1419,#1420,#1421,#1422));
#1419 = ORIENTED_EDGE('',*,*,#768,.F.);
#1420 = ORIENTED_EDGE('',*,*,#1387,.T.);
#1421 = ORIENTED_EDGE('',*,*,#427,.T.);
#1422 = ORIENTED_EDGE('',*,*,#1423,.F.);
#1423 = EDGE_CURVE('',#761,#420,#1424,.T.);
#1424 = LINE('',#1425,#1426);
#1425 = CARTESIAN_POINT('',(48.12150576,15.41549502,121.5));
#1426 = VECTOR('',#1427,1.);
#1427 = DIRECTION('',(-0.,-0.,-1.));
#1428 = PLANE('',#1429);
#1429 = AXIS2_PLACEMENT_3D('',#1430,#1431,#1432);
#1430 = CARTESIAN_POINT('',(48.32150572,15.41549502,121.5));
#1431 = DIRECTION('',(0.,1.,-0.));
#1432 = DIRECTION('',(-1.,0.,0.));
#1433 = ADVANCED_FACE('',(#1434),#1440,.T.);
#1434 = FACE_BOUND('',#1435,.T.);
#1435 = EDGE_LOOP('',(#1436,#1437,#1438,#1439));
#1436 = ORIENTED_EDGE('',*,*,#760,.F.);
#1437 = ORIENTED_EDGE('',*,*,#1406,.T.);
#1438 = ORIENTED_EDGE('',*,*,#419,.T.);
#1439 = ORIENTED_EDGE('',*,*,#1423,.F.);
#1440 = PLANE('',#1441);
#1441 = AXIS2_PLACEMENT_3D('',#1442,#1443,#1444);
#1442 = CARTESIAN_POINT('',(48.12150576,15.61549502,121.5));
#1443 = DIRECTION('',(-1.,-0.,0.));
#1444 = DIRECTION('',(0.,-1.,-0.));
#1445 = ADVANCED_FACE('',(#1446),#1457,.F.);
#1446 = FACE_BOUND('',#1447,.F.);
#1447 = EDGE_LOOP('',(#1448,#1454,#1455,#1456));
#1448 = ORIENTED_EDGE('',*,*,#1449,.T.);
#1449 = EDGE_CURVE('',#468,#809,#1450,.T.);
#1450 = LINE('',#1451,#1452);
#1451 = CARTESIAN_POINT('',(64.00000078,18.29999975,109.95));
#1452 = VECTOR('',#1453,1.);
#1453 = DIRECTION('',(0.,-0.707106781187,0.707106781187));
#1454 = ORIENTED_EDGE('',*,*,#808,.T.);
#1455 = ORIENTED_EDGE('',*,*,#1449,.F.);
#1456 = ORIENTED_EDGE('',*,*,#467,.T.);
#1457 = CONICAL_SURFACE('',#1458,1.7,0.785398163397);
#1458 = AXIS2_PLACEMENT_3D('',#1459,#1460,#1461);
#1459 = CARTESIAN_POINT('',(64.00000078,19.99999975,109.95));
#1460 = DIRECTION('',(0.,0.,1.));
#1461 = DIRECTION('',(0.,-1.,0.));
#1462 = ( GEOMETRIC_REPRESENTATION_CONTEXT(3) 
GLOBAL_UNCERTAINTY_ASSIGNED_CONTEXT((#1466)) 
GLOBAL_UNIT_ASSIGNED_CONTEXT((#1463,#1464,#1465)) REPRESENTATION_CONTEXT
('Context #1','3D Context with UNIT and UNCERTAINTY') );
#1463 = ( LENGTH_UNIT() NAMED_UNIT(*) SI_UNIT(.MILLI.,.METRE.) );
#1464 = ( NAMED_UNIT(*) PLANE_ANGLE_UNIT() SI_UNIT($,.RADIAN.) );
#1465 = ( NAMED_UNIT(*) SI_UNIT($,.STERADIAN.) SOLID_ANGLE_UNIT() );
#1466 = UNCERTAINTY_MEASURE_WITH_UNIT(LENGTH_MEASURE(1.E-07),#1463,
  'distance_accuracy_value','confusion accuracy');
#1467 = CONTEXT_DEPENDENT_SHAPE_REPRESENTATION(#1468,#1470);
#1468 = ( REPRESENTATION_RELATIONSHIP('','',#32,#10) 
REPRESENTATION_RELATIONSHIP_WITH_TRANSFORMATION(#1469) 
SHAPE_REPRESENTATION_RELATIONSHIP() );
#1469 = ITEM_DEFINED_TRANSFORMATION('','',#11,#15);
#1470 = PRODUCT_DEFINITION_SHAPE('Placement','Placement of an item',
  #1471);
#1471 = NEXT_ASSEMBLY_USAGE_OCCURRENCE('4','004-SOLID(4)-1','',#5,#27,$
  );
#1472 = PRODUCT_RELATED_PRODUCT_CATEGORY('part',$,(#29));
ENDSEC;
END-ISO-10303-21;
