ISO-10303-21;
HEADER;
FILE_DESCRIPTION(('Open CASCADE Model'),'2;1');
FILE_NAME('Open CASCADE Shape Model','2026-07-19T15:12:01',('Author'),(
    'Open CASCADE'),'Open CASCADE STEP processor 7.8','Open CASCADE 7.8'
  ,'Unknown');
FILE_SCHEMA(('AUTOMOTIVE_DESIGN { 1 0 10303 214 1 1 1 1 }'));
ENDSEC;
DATA;
#1 = APPLICATION_PROTOCOL_DEFINITION('international standard',
  'automotive_design',2000,#2);
#2 = APPLICATION_CONTEXT(
  'core data for automotive mechanical design processes');
#3 = SHAPE_DEFINITION_REPRESENTATION(#4,#10);
#4 = PRODUCT_DEFINITION_SHAPE('','',#5);
#5 = PRODUCT_DEFINITION('design','',#6,#9);
#6 = PRODUCT_DEFINITION_FORMATION('','',#7);
#7 = PRODUCT('003-SOLID(3)-1','003-SOLID(3)-1','',(#8));
#8 = PRODUCT_CONTEXT('',#2,'mechanical');
#9 = PRODUCT_DEFINITION_CONTEXT('part definition',#2,'design');
#10 = SHAPE_REPRESENTATION('',(#11,#15),#19);
#11 = AXIS2_PLACEMENT_3D('',#12,#13,#14);
#12 = CARTESIAN_POINT('',(0.,0.,0.));
#13 = DIRECTION('',(0.,0.,1.));
#14 = DIRECTION('',(1.,0.,-0.));
#15 = AXIS2_PLACEMENT_3D('',#16,#17,#18);
#16 = CARTESIAN_POINT('',(0.,0.,0.));
#17 = DIRECTION('',(0.,0.,1.));
#18 = DIRECTION('',(1.,0.,0.));
#19 = ( GEOMETRIC_REPRESENTATION_CONTEXT(3) 
GLOBAL_UNCERTAINTY_ASSIGNED_CONTEXT((#23)) GLOBAL_UNIT_ASSIGNED_CONTEXT(
(#20,#21,#22)) REPRESENTATION_CONTEXT('Context #1',
  '3D Context with UNIT and UNCERTAINTY') );
#20 = ( LENGTH_UNIT() NAMED_UNIT(*) SI_UNIT(.MILLI.,.METRE.) );
#21 = ( NAMED_UNIT(*) PLANE_ANGLE_UNIT() SI_UNIT($,.RADIAN.) );
#22 = ( NAMED_UNIT(*) SI_UNIT($,.STERADIAN.) SOLID_ANGLE_UNIT() );
#23 = UNCERTAINTY_MEASURE_WITH_UNIT(LENGTH_MEASURE(1.E-07),#20,
  'distance_accuracy_value','confusion accuracy');
#24 = PRODUCT_RELATED_PRODUCT_CATEGORY('part',$,(#7));
#25 = SHAPE_DEFINITION_REPRESENTATION(#26,#32);
#26 = PRODUCT_DEFINITION_SHAPE('','',#27);
#27 = PRODUCT_DEFINITION('design','',#28,#31);
#28 = PRODUCT_DEFINITION_FORMATION('','',#29);
#29 = PRODUCT('SOLID','SOLID','',(#30));
#30 = PRODUCT_CONTEXT('',#2,'mechanical');
#31 = PRODUCT_DEFINITION_CONTEXT('part definition',#2,'design');
#32 = ADVANCED_BREP_SHAPE_REPRESENTATION('',(#11,#33),#1062);
#33 = MANIFOLD_SOLID_BREP('',#34);
#34 = CLOSED_SHELL('',(#35,#77,#108,#139,#382,#625,#642,#659,#676,#693,
    #710,#727,#744,#761,#778,#795,#812,#829,#846,#863,#880,#897,#914,
    #931,#948,#965,#977,#994,#1011,#1028,#1045));
#35 = ADVANCED_FACE('',(#36),#72,.T.);
#36 = FACE_BOUND('',#37,.T.);
#37 = EDGE_LOOP('',(#38,#48,#57,#65));
#38 = ORIENTED_EDGE('',*,*,#39,.T.);
#39 = EDGE_CURVE('',#40,#42,#44,.T.);
#40 = VERTEX_POINT('',#41);
#41 = CARTESIAN_POINT('',(70.00000078,14.99999975,0.));
#42 = VERTEX_POINT('',#43);
#43 = CARTESIAN_POINT('',(70.00000078,14.99999975,-1.5));
#44 = LINE('',#45,#46);
#45 = CARTESIAN_POINT('',(70.00000078,14.99999975,0.));
#46 = VECTOR('',#47,1.);
#47 = DIRECTION('',(-0.,-0.,-1.));
#48 = ORIENTED_EDGE('',*,*,#49,.T.);
#49 = EDGE_CURVE('',#42,#50,#52,.T.);
#50 = VERTEX_POINT('',#51);
#51 = CARTESIAN_POINT('',(60.00000078,24.99999975,-1.5));
#52 = CIRCLE('',#53,10.);
#53 = AXIS2_PLACEMENT_3D('',#54,#55,#56);
#54 = CARTESIAN_POINT('',(60.00000078,14.99999975,-1.5));
#55 = DIRECTION('',(0.,-0.,1.));
#56 = DIRECTION('',(1.,0.,0.));
#57 = ORIENTED_EDGE('',*,*,#58,.F.);
#58 = EDGE_CURVE('',#59,#50,#61,.T.);
#59 = VERTEX_POINT('',#60);
#60 = CARTESIAN_POINT('',(60.00000078,24.99999975,0.));
#61 = LINE('',#62,#63);
#62 = CARTESIAN_POINT('',(60.00000078,24.99999975,0.));
#63 = VECTOR('',#64,1.);
#64 = DIRECTION('',(-0.,-0.,-1.));
#65 = ORIENTED_EDGE('',*,*,#66,.F.);
#66 = EDGE_CURVE('',#40,#59,#67,.T.);
#67 = CIRCLE('',#68,10.);
#68 = AXIS2_PLACEMENT_3D('',#69,#70,#71);
#69 = CARTESIAN_POINT('',(60.00000078,14.99999975,0.));
#70 = DIRECTION('',(0.,-0.,1.));
#71 = DIRECTION('',(1.,0.,0.));
#72 = CYLINDRICAL_SURFACE('',#73,10.);
#73 = AXIS2_PLACEMENT_3D('',#74,#75,#76);
#74 = CARTESIAN_POINT('',(60.00000078,14.99999975,0.));
#75 = DIRECTION('',(0.,-0.,1.));
#76 = DIRECTION('',(1.,0.,0.));
#77 = ADVANCED_FACE('',(#78),#103,.F.);
#78 = FACE_BOUND('',#79,.F.);
#79 = EDGE_LOOP('',(#80,#81,#89,#97));
#80 = ORIENTED_EDGE('',*,*,#39,.T.);
#81 = ORIENTED_EDGE('',*,*,#82,.T.);
#82 = EDGE_CURVE('',#42,#83,#85,.T.);
#83 = VERTEX_POINT('',#84);
#84 = CARTESIAN_POINT('',(70.00000078,-15.00000025,-1.5));
#85 = LINE('',#86,#87);
#86 = CARTESIAN_POINT('',(70.00000078,14.99999975,-1.5));
#87 = VECTOR('',#88,1.);
#88 = DIRECTION('',(0.,-1.,-0.));
#89 = ORIENTED_EDGE('',*,*,#90,.F.);
#90 = EDGE_CURVE('',#91,#83,#93,.T.);
#91 = VERTEX_POINT('',#92);
#92 = CARTESIAN_POINT('',(70.00000078,-15.00000025,0.));
#93 = LINE('',#94,#95);
#94 = CARTESIAN_POINT('',(70.00000078,-15.00000025,0.));
#95 = VECTOR('',#96,1.);
#96 = DIRECTION('',(-0.,-0.,-1.));
#97 = ORIENTED_EDGE('',*,*,#98,.F.);
#98 = EDGE_CURVE('',#40,#91,#99,.T.);
#99 = LINE('',#100,#101);
#100 = CARTESIAN_POINT('',(70.00000078,14.99999975,0.));
#101 = VECTOR('',#102,1.);
#102 = DIRECTION('',(0.,-1.,-0.));
#103 = PLANE('',#104);
#104 = AXIS2_PLACEMENT_3D('',#105,#106,#107);
#105 = CARTESIAN_POINT('',(70.00000078,14.99999975,0.));
#106 = DIRECTION('',(-1.,-0.,0.));
#107 = DIRECTION('',(0.,-1.,-0.));
#108 = ADVANCED_FACE('',(#109),#134,.F.);
#109 = FACE_BOUND('',#110,.F.);
#110 = EDGE_LOOP('',(#111,#121,#127,#128));
#111 = ORIENTED_EDGE('',*,*,#112,.T.);
#112 = EDGE_CURVE('',#113,#115,#117,.T.);
#113 = VERTEX_POINT('',#114);
#114 = CARTESIAN_POINT('',(59.30000078,24.99999975,0.));
#115 = VERTEX_POINT('',#116);
#116 = CARTESIAN_POINT('',(59.30000078,24.99999975,-1.5));
#117 = LINE('',#118,#119);
#118 = CARTESIAN_POINT('',(59.30000078,24.99999975,0.));
#119 = VECTOR('',#120,1.);
#120 = DIRECTION('',(-0.,-0.,-1.));
#121 = ORIENTED_EDGE('',*,*,#122,.T.);
#122 = EDGE_CURVE('',#115,#50,#123,.T.);
#123 = LINE('',#124,#125);
#124 = CARTESIAN_POINT('',(59.30000078,24.99999975,-1.5));
#125 = VECTOR('',#126,1.);
#126 = DIRECTION('',(1.,0.,0.));
#127 = ORIENTED_EDGE('',*,*,#58,.F.);
#128 = ORIENTED_EDGE('',*,*,#129,.F.);
#129 = EDGE_CURVE('',#113,#59,#130,.T.);
#130 = LINE('',#131,#132);
#131 = CARTESIAN_POINT('',(59.30000078,24.99999975,0.));
#132 = VECTOR('',#133,1.);
#133 = DIRECTION('',(1.,0.,0.));
#134 = PLANE('',#135);
#135 = AXIS2_PLACEMENT_3D('',#136,#137,#138);
#136 = CARTESIAN_POINT('',(59.30000078,24.99999975,0.));
#137 = DIRECTION('',(0.,-1.,0.));
#138 = DIRECTION('',(1.,0.,0.));
#139 = ADVANCED_FACE('',(#140,#322,#333,#344,#355,#366),#377,.T.);
#140 = FACE_BOUND('',#141,.T.);
#141 = EDGE_LOOP('',(#142,#143,#144,#153,#161,#170,#178,#187,#195,#204,
    #212,#221,#229,#238,#246,#255,#263,#272,#280,#289,#297,#306,#314,
    #321));
#142 = ORIENTED_EDGE('',*,*,#66,.T.);
#143 = ORIENTED_EDGE('',*,*,#129,.F.);
#144 = ORIENTED_EDGE('',*,*,#145,.T.);
#145 = EDGE_CURVE('',#113,#146,#148,.T.);
#146 = VERTEX_POINT('',#147);
#147 = CARTESIAN_POINT('',(59.00000078,24.69999975,0.));
#148 = CIRCLE('',#149,0.3);
#149 = AXIS2_PLACEMENT_3D('',#150,#151,#152);
#150 = CARTESIAN_POINT('',(59.30000078,24.69999975,0.));
#151 = DIRECTION('',(0.,-0.,1.));
#152 = DIRECTION('',(1.,0.,0.));
#153 = ORIENTED_EDGE('',*,*,#154,.T.);
#154 = EDGE_CURVE('',#146,#155,#157,.T.);
#155 = VERTEX_POINT('',#156);
#156 = CARTESIAN_POINT('',(59.00000078,24.59999975,0.));
#157 = LINE('',#158,#159);
#158 = CARTESIAN_POINT('',(59.00000078,24.69999975,0.));
#159 = VECTOR('',#160,1.);
#160 = DIRECTION('',(0.,-1.,-0.));
#161 = ORIENTED_EDGE('',*,*,#162,.F.);
#162 = EDGE_CURVE('',#163,#155,#165,.T.);
#163 = VERTEX_POINT('',#164);
#164 = CARTESIAN_POINT('',(58.50000078,24.09999975,0.));
#165 = CIRCLE('',#166,0.5);
#166 = AXIS2_PLACEMENT_3D('',#167,#168,#169);
#167 = CARTESIAN_POINT('',(58.50000078,24.59999975,0.));
#168 = DIRECTION('',(0.,-0.,1.));
#169 = DIRECTION('',(1.,0.,0.));
#170 = ORIENTED_EDGE('',*,*,#171,.T.);
#171 = EDGE_CURVE('',#163,#172,#174,.T.);
#172 = VERTEX_POINT('',#173);
#173 = CARTESIAN_POINT('',(-58.49999922,24.09999975,0.));
#174 = LINE('',#175,#176);
#175 = CARTESIAN_POINT('',(58.50000078,24.09999975,0.));
#176 = VECTOR('',#177,1.);
#177 = DIRECTION('',(-1.,0.,0.));
#178 = ORIENTED_EDGE('',*,*,#179,.F.);
#179 = EDGE_CURVE('',#180,#172,#182,.T.);
#180 = VERTEX_POINT('',#181);
#181 = CARTESIAN_POINT('',(-58.99999922,24.59999975,0.));
#182 = CIRCLE('',#183,0.5);
#183 = AXIS2_PLACEMENT_3D('',#184,#185,#186);
#184 = CARTESIAN_POINT('',(-58.49999922,24.59999975,0.));
#185 = DIRECTION('',(0.,-0.,1.));
#186 = DIRECTION('',(1.,0.,0.));
#187 = ORIENTED_EDGE('',*,*,#188,.T.);
#188 = EDGE_CURVE('',#180,#189,#191,.T.);
#189 = VERTEX_POINT('',#190);
#190 = CARTESIAN_POINT('',(-58.99999922,24.69999975,0.));
#191 = LINE('',#192,#193);
#192 = CARTESIAN_POINT('',(-58.99999922,24.59999975,0.));
#193 = VECTOR('',#194,1.);
#194 = DIRECTION('',(0.,1.,0.));
#195 = ORIENTED_EDGE('',*,*,#196,.T.);
#196 = EDGE_CURVE('',#189,#197,#199,.T.);
#197 = VERTEX_POINT('',#198);
#198 = CARTESIAN_POINT('',(-59.29999922,24.99999975,0.));
#199 = CIRCLE('',#200,0.3);
#200 = AXIS2_PLACEMENT_3D('',#201,#202,#203);
#201 = CARTESIAN_POINT('',(-59.29999922,24.69999975,0.));
#202 = DIRECTION('',(0.,-0.,1.));
#203 = DIRECTION('',(1.,0.,0.));
#204 = ORIENTED_EDGE('',*,*,#205,.F.);
#205 = EDGE_CURVE('',#206,#197,#208,.T.);
#206 = VERTEX_POINT('',#207);
#207 = CARTESIAN_POINT('',(-59.99999922,24.99999975,0.));
#208 = LINE('',#209,#210);
#209 = CARTESIAN_POINT('',(-59.99999922,24.99999975,0.));
#210 = VECTOR('',#211,1.);
#211 = DIRECTION('',(1.,0.,0.));
#212 = ORIENTED_EDGE('',*,*,#213,.T.);
#213 = EDGE_CURVE('',#206,#214,#216,.T.);
#214 = VERTEX_POINT('',#215);
#215 = CARTESIAN_POINT('',(-69.99999922,14.99999975,0.));
#216 = CIRCLE('',#217,10.);
#217 = AXIS2_PLACEMENT_3D('',#218,#219,#220);
#218 = CARTESIAN_POINT('',(-59.99999922,14.99999975,0.));
#219 = DIRECTION('',(0.,-0.,1.));
#220 = DIRECTION('',(1.,0.,0.));
#221 = ORIENTED_EDGE('',*,*,#222,.F.);
#222 = EDGE_CURVE('',#223,#214,#225,.T.);
#223 = VERTEX_POINT('',#224);
#224 = CARTESIAN_POINT('',(-69.99999922,-15.00000025,0.));
#225 = LINE('',#226,#227);
#226 = CARTESIAN_POINT('',(-69.99999922,-15.00000025,0.));
#227 = VECTOR('',#228,1.);
#228 = DIRECTION('',(0.,1.,0.));
#229 = ORIENTED_EDGE('',*,*,#230,.T.);
#230 = EDGE_CURVE('',#223,#231,#233,.T.);
#231 = VERTEX_POINT('',#232);
#232 = CARTESIAN_POINT('',(-59.99999922,-25.00000025,0.));
#233 = CIRCLE('',#234,10.);
#234 = AXIS2_PLACEMENT_3D('',#235,#236,#237);
#235 = CARTESIAN_POINT('',(-59.99999922,-15.00000025,0.));
#236 = DIRECTION('',(0.,-0.,1.));
#237 = DIRECTION('',(1.,0.,0.));
#238 = ORIENTED_EDGE('',*,*,#239,.F.);
#239 = EDGE_CURVE('',#240,#231,#242,.T.);
#240 = VERTEX_POINT('',#241);
#241 = CARTESIAN_POINT('',(-59.29999922,-25.00000025,0.));
#242 = LINE('',#243,#244);
#243 = CARTESIAN_POINT('',(-59.29999922,-25.00000025,0.));
#244 = VECTOR('',#245,1.);
#245 = DIRECTION('',(-1.,0.,0.));
#246 = ORIENTED_EDGE('',*,*,#247,.T.);
#247 = EDGE_CURVE('',#240,#248,#250,.T.);
#248 = VERTEX_POINT('',#249);
#249 = CARTESIAN_POINT('',(-58.99999922,-24.70000025,0.));
#250 = CIRCLE('',#251,0.3);
#251 = AXIS2_PLACEMENT_3D('',#252,#253,#254);
#252 = CARTESIAN_POINT('',(-59.29999922,-24.70000025,0.));
#253 = DIRECTION('',(0.,-0.,1.));
#254 = DIRECTION('',(1.,0.,0.));
#255 = ORIENTED_EDGE('',*,*,#256,.T.);
#256 = EDGE_CURVE('',#248,#257,#259,.T.);
#257 = VERTEX_POINT('',#258);
#258 = CARTESIAN_POINT('',(-58.99999922,-24.60000025,0.));
#259 = LINE('',#260,#261);
#260 = CARTESIAN_POINT('',(-58.99999922,-24.70000025,0.));
#261 = VECTOR('',#262,1.);
#262 = DIRECTION('',(0.,1.,0.));
#263 = ORIENTED_EDGE('',*,*,#264,.F.);
#264 = EDGE_CURVE('',#265,#257,#267,.T.);
#265 = VERTEX_POINT('',#266);
#266 = CARTESIAN_POINT('',(-58.49999922,-24.10000025,0.));
#267 = CIRCLE('',#268,0.5);
#268 = AXIS2_PLACEMENT_3D('',#269,#270,#271);
#269 = CARTESIAN_POINT('',(-58.49999922,-24.60000025,0.));
#270 = DIRECTION('',(0.,-0.,1.));
#271 = DIRECTION('',(1.,0.,0.));
#272 = ORIENTED_EDGE('',*,*,#273,.T.);
#273 = EDGE_CURVE('',#265,#274,#276,.T.);
#274 = VERTEX_POINT('',#275);
#275 = CARTESIAN_POINT('',(58.50000078,-24.10000025,0.));
#276 = LINE('',#277,#278);
#277 = CARTESIAN_POINT('',(-58.49999922,-24.10000025,0.));
#278 = VECTOR('',#279,1.);
#279 = DIRECTION('',(1.,0.,0.));
#280 = ORIENTED_EDGE('',*,*,#281,.F.);
#281 = EDGE_CURVE('',#282,#274,#284,.T.);
#282 = VERTEX_POINT('',#283);
#283 = CARTESIAN_POINT('',(59.00000078,-24.60000025,0.));
#284 = CIRCLE('',#285,0.5);
#285 = AXIS2_PLACEMENT_3D('',#286,#287,#288);
#286 = CARTESIAN_POINT('',(58.50000078,-24.60000025,0.));
#287 = DIRECTION('',(0.,-0.,1.));
#288 = DIRECTION('',(1.,0.,0.));
#289 = ORIENTED_EDGE('',*,*,#290,.T.);
#290 = EDGE_CURVE('',#282,#291,#293,.T.);
#291 = VERTEX_POINT('',#292);
#292 = CARTESIAN_POINT('',(59.00000078,-24.70000025,0.));
#293 = LINE('',#294,#295);
#294 = CARTESIAN_POINT('',(59.00000078,-24.60000025,0.));
#295 = VECTOR('',#296,1.);
#296 = DIRECTION('',(0.,-1.,-0.));
#297 = ORIENTED_EDGE('',*,*,#298,.T.);
#298 = EDGE_CURVE('',#291,#299,#301,.T.);
#299 = VERTEX_POINT('',#300);
#300 = CARTESIAN_POINT('',(59.30000078,-25.00000025,0.));
#301 = CIRCLE('',#302,0.3);
#302 = AXIS2_PLACEMENT_3D('',#303,#304,#305);
#303 = CARTESIAN_POINT('',(59.30000078,-24.70000025,0.));
#304 = DIRECTION('',(0.,-0.,1.));
#305 = DIRECTION('',(1.,0.,0.));
#306 = ORIENTED_EDGE('',*,*,#307,.F.);
#307 = EDGE_CURVE('',#308,#299,#310,.T.);
#308 = VERTEX_POINT('',#309);
#309 = CARTESIAN_POINT('',(60.00000078,-25.00000025,0.));
#310 = LINE('',#311,#312);
#311 = CARTESIAN_POINT('',(60.00000078,-25.00000025,0.));
#312 = VECTOR('',#313,1.);
#313 = DIRECTION('',(-1.,0.,0.));
#314 = ORIENTED_EDGE('',*,*,#315,.T.);
#315 = EDGE_CURVE('',#308,#91,#316,.T.);
#316 = CIRCLE('',#317,10.);
#317 = AXIS2_PLACEMENT_3D('',#318,#319,#320);
#318 = CARTESIAN_POINT('',(60.00000078,-15.00000025,0.));
#319 = DIRECTION('',(0.,-0.,1.));
#320 = DIRECTION('',(1.,0.,0.));
#321 = ORIENTED_EDGE('',*,*,#98,.F.);
#322 = FACE_BOUND('',#323,.T.);
#323 = EDGE_LOOP('',(#324));
#324 = ORIENTED_EDGE('',*,*,#325,.T.);
#325 = EDGE_CURVE('',#326,#326,#328,.T.);
#326 = VERTEX_POINT('',#327);
#327 = CARTESIAN_POINT('',(-63.99999922,-21.75000025,0.));
#328 = CIRCLE('',#329,1.75);
#329 = AXIS2_PLACEMENT_3D('',#330,#331,#332);
#330 = CARTESIAN_POINT('',(-63.99999922,-20.00000025,0.));
#331 = DIRECTION('',(0.,0.,-1.));
#332 = DIRECTION('',(0.,-1.,0.));
#333 = FACE_BOUND('',#334,.T.);
#334 = EDGE_LOOP('',(#335));
#335 = ORIENTED_EDGE('',*,*,#336,.T.);
#336 = EDGE_CURVE('',#337,#337,#339,.T.);
#337 = VERTEX_POINT('',#338);
#338 = CARTESIAN_POINT('',(64.00000078,-21.75000025,0.));
#339 = CIRCLE('',#340,1.75);
#340 = AXIS2_PLACEMENT_3D('',#341,#342,#343);
#341 = CARTESIAN_POINT('',(64.00000078,-20.00000025,0.));
#342 = DIRECTION('',(0.,0.,-1.));
#343 = DIRECTION('',(0.,-1.,0.));
#344 = FACE_BOUND('',#345,.T.);
#345 = EDGE_LOOP('',(#346));
#346 = ORIENTED_EDGE('',*,*,#347,.T.);
#347 = EDGE_CURVE('',#348,#348,#350,.T.);
#348 = VERTEX_POINT('',#349);
#349 = CARTESIAN_POINT('',(-63.99999922,18.24999975,0.));
#350 = CIRCLE('',#351,1.75);
#351 = AXIS2_PLACEMENT_3D('',#352,#353,#354);
#352 = CARTESIAN_POINT('',(-63.99999922,19.99999975,0.));
#353 = DIRECTION('',(0.,0.,-1.));
#354 = DIRECTION('',(0.,-1.,0.));
#355 = FACE_BOUND('',#356,.T.);
#356 = EDGE_LOOP('',(#357));
#357 = ORIENTED_EDGE('',*,*,#358,.T.);
#358 = EDGE_CURVE('',#359,#359,#361,.T.);
#359 = VERTEX_POINT('',#360);
#360 = CARTESIAN_POINT('',(3.71894533,8.8154949,0.));
#361 = CIRCLE('',#362,3.15000001);
#362 = AXIS2_PLACEMENT_3D('',#363,#364,#365);
#363 = CARTESIAN_POINT('',(6.86894534,8.8154949,0.));
#364 = DIRECTION('',(0.,0.,-1.));
#365 = DIRECTION('',(-1.,0.,0.));
#366 = FACE_BOUND('',#367,.T.);
#367 = EDGE_LOOP('',(#368));
#368 = ORIENTED_EDGE('',*,*,#369,.T.);
#369 = EDGE_CURVE('',#370,#370,#372,.T.);
#370 = VERTEX_POINT('',#371);
#371 = CARTESIAN_POINT('',(64.00000078,18.24999975,0.));
#372 = CIRCLE('',#373,1.75);
#373 = AXIS2_PLACEMENT_3D('',#374,#375,#376);
#374 = CARTESIAN_POINT('',(64.00000078,19.99999975,0.));
#375 = DIRECTION('',(0.,0.,-1.));
#376 = DIRECTION('',(0.,-1.,0.));
#377 = PLANE('',#378);
#378 = AXIS2_PLACEMENT_3D('',#379,#380,#381);
#379 = CARTESIAN_POINT('',(0.,0.,0.));
#380 = DIRECTION('',(0.,0.,1.));
#381 = DIRECTION('',(1.,0.,-0.));
#382 = ADVANCED_FACE('',(#383,#565,#576,#587,#598,#609),#620,.F.);
#383 = FACE_BOUND('',#384,.F.);
#384 = EDGE_LOOP('',(#385,#386,#387,#396,#404,#413,#421,#430,#438,#447,
    #455,#464,#472,#481,#489,#498,#506,#515,#523,#532,#540,#549,#557,
    #564));
#385 = ORIENTED_EDGE('',*,*,#49,.T.);
#386 = ORIENTED_EDGE('',*,*,#122,.F.);
#387 = ORIENTED_EDGE('',*,*,#388,.T.);
#388 = EDGE_CURVE('',#115,#389,#391,.T.);
#389 = VERTEX_POINT('',#390);
#390 = CARTESIAN_POINT('',(59.00000078,24.69999975,-1.5));
#391 = CIRCLE('',#392,0.3);
#392 = AXIS2_PLACEMENT_3D('',#393,#394,#395);
#393 = CARTESIAN_POINT('',(59.30000078,24.69999975,-1.5));
#394 = DIRECTION('',(0.,-0.,1.));
#395 = DIRECTION('',(1.,0.,0.));
#396 = ORIENTED_EDGE('',*,*,#397,.T.);
#397 = EDGE_CURVE('',#389,#398,#400,.T.);
#398 = VERTEX_POINT('',#399);
#399 = CARTESIAN_POINT('',(59.00000078,24.59999975,-1.5));
#400 = LINE('',#401,#402);
#401 = CARTESIAN_POINT('',(59.00000078,24.69999975,-1.5));
#402 = VECTOR('',#403,1.);
#403 = DIRECTION('',(0.,-1.,-0.));
#404 = ORIENTED_EDGE('',*,*,#405,.F.);
#405 = EDGE_CURVE('',#406,#398,#408,.T.);
#406 = VERTEX_POINT('',#407);
#407 = CARTESIAN_POINT('',(58.50000078,24.09999975,-1.5));
#408 = CIRCLE('',#409,0.5);
#409 = AXIS2_PLACEMENT_3D('',#410,#411,#412);
#410 = CARTESIAN_POINT('',(58.50000078,24.59999975,-1.5));
#411 = DIRECTION('',(0.,-0.,1.));
#412 = DIRECTION('',(1.,0.,0.));
#413 = ORIENTED_EDGE('',*,*,#414,.T.);
#414 = EDGE_CURVE('',#406,#415,#417,.T.);
#415 = VERTEX_POINT('',#416);
#416 = CARTESIAN_POINT('',(-58.49999922,24.09999975,-1.5));
#417 = LINE('',#418,#419);
#418 = CARTESIAN_POINT('',(58.50000078,24.09999975,-1.5));
#419 = VECTOR('',#420,1.);
#420 = DIRECTION('',(-1.,0.,0.));
#421 = ORIENTED_EDGE('',*,*,#422,.F.);
#422 = EDGE_CURVE('',#423,#415,#425,.T.);
#423 = VERTEX_POINT('',#424);
#424 = CARTESIAN_POINT('',(-58.99999922,24.59999975,-1.5));
#425 = CIRCLE('',#426,0.5);
#426 = AXIS2_PLACEMENT_3D('',#427,#428,#429);
#427 = CARTESIAN_POINT('',(-58.49999922,24.59999975,-1.5));
#428 = DIRECTION('',(0.,-0.,1.));
#429 = DIRECTION('',(1.,0.,0.));
#430 = ORIENTED_EDGE('',*,*,#431,.T.);
#431 = EDGE_CURVE('',#423,#432,#434,.T.);
#432 = VERTEX_POINT('',#433);
#433 = CARTESIAN_POINT('',(-58.99999922,24.69999975,-1.5));
#434 = LINE('',#435,#436);
#435 = CARTESIAN_POINT('',(-58.99999922,24.59999975,-1.5));
#436 = VECTOR('',#437,1.);
#437 = DIRECTION('',(0.,1.,0.));
#438 = ORIENTED_EDGE('',*,*,#439,.T.);
#439 = EDGE_CURVE('',#432,#440,#442,.T.);
#440 = VERTEX_POINT('',#441);
#441 = CARTESIAN_POINT('',(-59.29999922,24.99999975,-1.5));
#442 = CIRCLE('',#443,0.3);
#443 = AXIS2_PLACEMENT_3D('',#444,#445,#446);
#444 = CARTESIAN_POINT('',(-59.29999922,24.69999975,-1.5));
#445 = DIRECTION('',(0.,-0.,1.));
#446 = DIRECTION('',(1.,0.,0.));
#447 = ORIENTED_EDGE('',*,*,#448,.F.);
#448 = EDGE_CURVE('',#449,#440,#451,.T.);
#449 = VERTEX_POINT('',#450);
#450 = CARTESIAN_POINT('',(-59.99999922,24.99999975,-1.5));
#451 = LINE('',#452,#453);
#452 = CARTESIAN_POINT('',(-59.99999922,24.99999975,-1.5));
#453 = VECTOR('',#454,1.);
#454 = DIRECTION('',(1.,0.,0.));
#455 = ORIENTED_EDGE('',*,*,#456,.T.);
#456 = EDGE_CURVE('',#449,#457,#459,.T.);
#457 = VERTEX_POINT('',#458);
#458 = CARTESIAN_POINT('',(-69.99999922,14.99999975,-1.5));
#459 = CIRCLE('',#460,10.);
#460 = AXIS2_PLACEMENT_3D('',#461,#462,#463);
#461 = CARTESIAN_POINT('',(-59.99999922,14.99999975,-1.5));
#462 = DIRECTION('',(0.,-0.,1.));
#463 = DIRECTION('',(1.,0.,0.));
#464 = ORIENTED_EDGE('',*,*,#465,.F.);
#465 = EDGE_CURVE('',#466,#457,#468,.T.);
#466 = VERTEX_POINT('',#467);
#467 = CARTESIAN_POINT('',(-69.99999922,-15.00000025,-1.5));
#468 = LINE('',#469,#470);
#469 = CARTESIAN_POINT('',(-69.99999922,-15.00000025,-1.5));
#470 = VECTOR('',#471,1.);
#471 = DIRECTION('',(0.,1.,0.));
#472 = ORIENTED_EDGE('',*,*,#473,.T.);
#473 = EDGE_CURVE('',#466,#474,#476,.T.);
#474 = VERTEX_POINT('',#475);
#475 = CARTESIAN_POINT('',(-59.99999922,-25.00000025,-1.5));
#476 = CIRCLE('',#477,10.);
#477 = AXIS2_PLACEMENT_3D('',#478,#479,#480);
#478 = CARTESIAN_POINT('',(-59.99999922,-15.00000025,-1.5));
#479 = DIRECTION('',(0.,-0.,1.));
#480 = DIRECTION('',(1.,0.,0.));
#481 = ORIENTED_EDGE('',*,*,#482,.F.);
#482 = EDGE_CURVE('',#483,#474,#485,.T.);
#483 = VERTEX_POINT('',#484);
#484 = CARTESIAN_POINT('',(-59.29999922,-25.00000025,-1.5));
#485 = LINE('',#486,#487);
#486 = CARTESIAN_POINT('',(-59.29999922,-25.00000025,-1.5));
#487 = VECTOR('',#488,1.);
#488 = DIRECTION('',(-1.,0.,0.));
#489 = ORIENTED_EDGE('',*,*,#490,.T.);
#490 = EDGE_CURVE('',#483,#491,#493,.T.);
#491 = VERTEX_POINT('',#492);
#492 = CARTESIAN_POINT('',(-58.99999922,-24.70000025,-1.5));
#493 = CIRCLE('',#494,0.3);
#494 = AXIS2_PLACEMENT_3D('',#495,#496,#497);
#495 = CARTESIAN_POINT('',(-59.29999922,-24.70000025,-1.5));
#496 = DIRECTION('',(0.,-0.,1.));
#497 = DIRECTION('',(1.,0.,0.));
#498 = ORIENTED_EDGE('',*,*,#499,.T.);
#499 = EDGE_CURVE('',#491,#500,#502,.T.);
#500 = VERTEX_POINT('',#501);
#501 = CARTESIAN_POINT('',(-58.99999922,-24.60000025,-1.5));
#502 = LINE('',#503,#504);
#503 = CARTESIAN_POINT('',(-58.99999922,-24.70000025,-1.5));
#504 = VECTOR('',#505,1.);
#505 = DIRECTION('',(0.,1.,0.));
#506 = ORIENTED_EDGE('',*,*,#507,.F.);
#507 = EDGE_CURVE('',#508,#500,#510,.T.);
#508 = VERTEX_POINT('',#509);
#509 = CARTESIAN_POINT('',(-58.49999922,-24.10000025,-1.5));
#510 = CIRCLE('',#511,0.5);
#511 = AXIS2_PLACEMENT_3D('',#512,#513,#514);
#512 = CARTESIAN_POINT('',(-58.49999922,-24.60000025,-1.5));
#513 = DIRECTION('',(0.,-0.,1.));
#514 = DIRECTION('',(1.,0.,0.));
#515 = ORIENTED_EDGE('',*,*,#516,.T.);
#516 = EDGE_CURVE('',#508,#517,#519,.T.);
#517 = VERTEX_POINT('',#518);
#518 = CARTESIAN_POINT('',(58.50000078,-24.10000025,-1.5));
#519 = LINE('',#520,#521);
#520 = CARTESIAN_POINT('',(-58.49999922,-24.10000025,-1.5));
#521 = VECTOR('',#522,1.);
#522 = DIRECTION('',(1.,0.,0.));
#523 = ORIENTED_EDGE('',*,*,#524,.F.);
#524 = EDGE_CURVE('',#525,#517,#527,.T.);
#525 = VERTEX_POINT('',#526);
#526 = CARTESIAN_POINT('',(59.00000078,-24.60000025,-1.5));
#527 = CIRCLE('',#528,0.5);
#528 = AXIS2_PLACEMENT_3D('',#529,#530,#531);
#529 = CARTESIAN_POINT('',(58.50000078,-24.60000025,-1.5));
#530 = DIRECTION('',(0.,-0.,1.));
#531 = DIRECTION('',(1.,0.,0.));
#532 = ORIENTED_EDGE('',*,*,#533,.T.);
#533 = EDGE_CURVE('',#525,#534,#536,.T.);
#534 = VERTEX_POINT('',#535);
#535 = CARTESIAN_POINT('',(59.00000078,-24.70000025,-1.5));
#536 = LINE('',#537,#538);
#537 = CARTESIAN_POINT('',(59.00000078,-24.60000025,-1.5));
#538 = VECTOR('',#539,1.);
#539 = DIRECTION('',(0.,-1.,-0.));
#540 = ORIENTED_EDGE('',*,*,#541,.T.);
#541 = EDGE_CURVE('',#534,#542,#544,.T.);
#542 = VERTEX_POINT('',#543);
#543 = CARTESIAN_POINT('',(59.30000078,-25.00000025,-1.5));
#544 = CIRCLE('',#545,0.3);
#545 = AXIS2_PLACEMENT_3D('',#546,#547,#548);
#546 = CARTESIAN_POINT('',(59.30000078,-24.70000025,-1.5));
#547 = DIRECTION('',(0.,-0.,1.));
#548 = DIRECTION('',(1.,0.,0.));
#549 = ORIENTED_EDGE('',*,*,#550,.F.);
#550 = EDGE_CURVE('',#551,#542,#553,.T.);
#551 = VERTEX_POINT('',#552);
#552 = CARTESIAN_POINT('',(60.00000078,-25.00000025,-1.5));
#553 = LINE('',#554,#555);
#554 = CARTESIAN_POINT('',(60.00000078,-25.00000025,-1.5));
#555 = VECTOR('',#556,1.);
#556 = DIRECTION('',(-1.,0.,0.));
#557 = ORIENTED_EDGE('',*,*,#558,.T.);
#558 = EDGE_CURVE('',#551,#83,#559,.T.);
#559 = CIRCLE('',#560,10.);
#560 = AXIS2_PLACEMENT_3D('',#561,#562,#563);
#561 = CARTESIAN_POINT('',(60.00000078,-15.00000025,-1.5));
#562 = DIRECTION('',(0.,-0.,1.));
#563 = DIRECTION('',(1.,0.,0.));
#564 = ORIENTED_EDGE('',*,*,#82,.F.);
#565 = FACE_BOUND('',#566,.F.);
#566 = EDGE_LOOP('',(#567));
#567 = ORIENTED_EDGE('',*,*,#568,.F.);
#568 = EDGE_CURVE('',#569,#569,#571,.T.);
#569 = VERTEX_POINT('',#570);
#570 = CARTESIAN_POINT('',(-63.99999922,-23.25000025,-1.5));
#571 = CIRCLE('',#572,3.25);
#572 = AXIS2_PLACEMENT_3D('',#573,#574,#575);
#573 = CARTESIAN_POINT('',(-63.99999922,-20.00000025,-1.5));
#574 = DIRECTION('',(-0.,0.,1.));
#575 = DIRECTION('',(0.,-1.,0.));
#576 = FACE_BOUND('',#577,.F.);
#577 = EDGE_LOOP('',(#578));
#578 = ORIENTED_EDGE('',*,*,#579,.F.);
#579 = EDGE_CURVE('',#580,#580,#582,.T.);
#580 = VERTEX_POINT('',#581);
#581 = CARTESIAN_POINT('',(64.00000078,-23.25000025,-1.5));
#582 = CIRCLE('',#583,3.25);
#583 = AXIS2_PLACEMENT_3D('',#584,#585,#586);
#584 = CARTESIAN_POINT('',(64.00000078,-20.00000025,-1.5));
#585 = DIRECTION('',(-0.,0.,1.));
#586 = DIRECTION('',(0.,-1.,0.));
#587 = FACE_BOUND('',#588,.F.);
#588 = EDGE_LOOP('',(#589));
#589 = ORIENTED_EDGE('',*,*,#590,.F.);
#590 = EDGE_CURVE('',#591,#591,#593,.T.);
#591 = VERTEX_POINT('',#592);
#592 = CARTESIAN_POINT('',(-63.99999922,16.74999975,-1.5));
#593 = CIRCLE('',#594,3.25);
#594 = AXIS2_PLACEMENT_3D('',#595,#596,#597);
#595 = CARTESIAN_POINT('',(-63.99999922,19.99999975,-1.5));
#596 = DIRECTION('',(-0.,0.,1.));
#597 = DIRECTION('',(0.,-1.,0.));
#598 = FACE_BOUND('',#599,.F.);
#599 = EDGE_LOOP('',(#600));
#600 = ORIENTED_EDGE('',*,*,#601,.F.);
#601 = EDGE_CURVE('',#602,#602,#604,.T.);
#602 = VERTEX_POINT('',#603);
#603 = CARTESIAN_POINT('',(3.71894533,8.8154949,-1.5));
#604 = CIRCLE('',#605,3.15000001);
#605 = AXIS2_PLACEMENT_3D('',#606,#607,#608);
#606 = CARTESIAN_POINT('',(6.86894534,8.8154949,-1.5));
#607 = DIRECTION('',(0.,0.,1.));
#608 = DIRECTION('',(-1.,2.449293598295E-16,0.));
#609 = FACE_BOUND('',#610,.F.);
#610 = EDGE_LOOP('',(#611));
#611 = ORIENTED_EDGE('',*,*,#612,.F.);
#612 = EDGE_CURVE('',#613,#613,#615,.T.);
#613 = VERTEX_POINT('',#614);
#614 = CARTESIAN_POINT('',(64.00000078,16.74999975,-1.5));
#615 = CIRCLE('',#616,3.25);
#616 = AXIS2_PLACEMENT_3D('',#617,#618,#619);
#617 = CARTESIAN_POINT('',(64.00000078,19.99999975,-1.5));
#618 = DIRECTION('',(-0.,0.,1.));
#619 = DIRECTION('',(0.,-1.,0.));
#620 = PLANE('',#621);
#621 = AXIS2_PLACEMENT_3D('',#622,#623,#624);
#622 = CARTESIAN_POINT('',(0.,0.,-1.5));
#623 = DIRECTION('',(0.,0.,1.));
#624 = DIRECTION('',(1.,0.,-0.));
#625 = ADVANCED_FACE('',(#626),#637,.T.);
#626 = FACE_BOUND('',#627,.T.);
#627 = EDGE_LOOP('',(#628,#634,#635,#636));
#628 = ORIENTED_EDGE('',*,*,#629,.T.);
#629 = EDGE_CURVE('',#308,#551,#630,.T.);
#630 = LINE('',#631,#632);
#631 = CARTESIAN_POINT('',(60.00000078,-25.00000025,0.));
#632 = VECTOR('',#633,1.);
#633 = DIRECTION('',(-0.,-0.,-1.));
#634 = ORIENTED_EDGE('',*,*,#558,.T.);
#635 = ORIENTED_EDGE('',*,*,#90,.F.);
#636 = ORIENTED_EDGE('',*,*,#315,.F.);
#637 = CYLINDRICAL_SURFACE('',#638,10.);
#638 = AXIS2_PLACEMENT_3D('',#639,#640,#641);
#639 = CARTESIAN_POINT('',(60.00000078,-15.00000025,0.));
#640 = DIRECTION('',(0.,-0.,1.));
#641 = DIRECTION('',(1.,0.,0.));
#642 = ADVANCED_FACE('',(#643),#654,.T.);
#643 = FACE_BOUND('',#644,.T.);
#644 = EDGE_LOOP('',(#645,#646,#647,#653));
#645 = ORIENTED_EDGE('',*,*,#112,.T.);
#646 = ORIENTED_EDGE('',*,*,#388,.T.);
#647 = ORIENTED_EDGE('',*,*,#648,.F.);
#648 = EDGE_CURVE('',#146,#389,#649,.T.);
#649 = LINE('',#650,#651);
#650 = CARTESIAN_POINT('',(59.00000078,24.69999975,0.));
#651 = VECTOR('',#652,1.);
#652 = DIRECTION('',(-0.,-0.,-1.));
#653 = ORIENTED_EDGE('',*,*,#145,.F.);
#654 = CYLINDRICAL_SURFACE('',#655,0.3);
#655 = AXIS2_PLACEMENT_3D('',#656,#657,#658);
#656 = CARTESIAN_POINT('',(59.30000078,24.69999975,0.));
#657 = DIRECTION('',(0.,-0.,1.));
#658 = DIRECTION('',(1.,0.,0.));
#659 = ADVANCED_FACE('',(#660),#671,.F.);
#660 = FACE_BOUND('',#661,.F.);
#661 = EDGE_LOOP('',(#662,#663,#664,#670));
#662 = ORIENTED_EDGE('',*,*,#629,.T.);
#663 = ORIENTED_EDGE('',*,*,#550,.T.);
#664 = ORIENTED_EDGE('',*,*,#665,.F.);
#665 = EDGE_CURVE('',#299,#542,#666,.T.);
#666 = LINE('',#667,#668);
#667 = CARTESIAN_POINT('',(59.30000078,-25.00000025,0.));
#668 = VECTOR('',#669,1.);
#669 = DIRECTION('',(-0.,-0.,-1.));
#670 = ORIENTED_EDGE('',*,*,#307,.F.);
#671 = PLANE('',#672);
#672 = AXIS2_PLACEMENT_3D('',#673,#674,#675);
#673 = CARTESIAN_POINT('',(60.00000078,-25.00000025,0.));
#674 = DIRECTION('',(0.,1.,-0.));
#675 = DIRECTION('',(-1.,0.,0.));
#676 = ADVANCED_FACE('',(#677),#688,.T.);
#677 = FACE_BOUND('',#678,.T.);
#678 = EDGE_LOOP('',(#679,#680,#681,#687));
#679 = ORIENTED_EDGE('',*,*,#648,.T.);
#680 = ORIENTED_EDGE('',*,*,#397,.T.);
#681 = ORIENTED_EDGE('',*,*,#682,.F.);
#682 = EDGE_CURVE('',#155,#398,#683,.T.);
#683 = LINE('',#684,#685);
#684 = CARTESIAN_POINT('',(59.00000078,24.59999975,0.));
#685 = VECTOR('',#686,1.);
#686 = DIRECTION('',(-0.,-0.,-1.));
#687 = ORIENTED_EDGE('',*,*,#154,.F.);
#688 = PLANE('',#689);
#689 = AXIS2_PLACEMENT_3D('',#690,#691,#692);
#690 = CARTESIAN_POINT('',(59.00000078,24.69999975,0.));
#691 = DIRECTION('',(-1.,-0.,0.));
#692 = DIRECTION('',(0.,-1.,-0.));
#693 = ADVANCED_FACE('',(#694),#705,.T.);
#694 = FACE_BOUND('',#695,.T.);
#695 = EDGE_LOOP('',(#696,#702,#703,#704));
#696 = ORIENTED_EDGE('',*,*,#697,.T.);
#697 = EDGE_CURVE('',#291,#534,#698,.T.);
#698 = LINE('',#699,#700);
#699 = CARTESIAN_POINT('',(59.00000078,-24.70000025,0.));
#700 = VECTOR('',#701,1.);
#701 = DIRECTION('',(-0.,-0.,-1.));
#702 = ORIENTED_EDGE('',*,*,#541,.T.);
#703 = ORIENTED_EDGE('',*,*,#665,.F.);
#704 = ORIENTED_EDGE('',*,*,#298,.F.);
#705 = CYLINDRICAL_SURFACE('',#706,0.3);
#706 = AXIS2_PLACEMENT_3D('',#707,#708,#709);
#707 = CARTESIAN_POINT('',(59.30000078,-24.70000025,0.));
#708 = DIRECTION('',(0.,-0.,1.));
#709 = DIRECTION('',(1.,0.,0.));
#710 = ADVANCED_FACE('',(#711),#722,.F.);
#711 = FACE_BOUND('',#712,.F.);
#712 = EDGE_LOOP('',(#713,#719,#720,#721));
#713 = ORIENTED_EDGE('',*,*,#714,.T.);
#714 = EDGE_CURVE('',#163,#406,#715,.T.);
#715 = LINE('',#716,#717);
#716 = CARTESIAN_POINT('',(58.50000078,24.09999975,0.));
#717 = VECTOR('',#718,1.);
#718 = DIRECTION('',(-0.,-0.,-1.));
#719 = ORIENTED_EDGE('',*,*,#405,.T.);
#720 = ORIENTED_EDGE('',*,*,#682,.F.);
#721 = ORIENTED_EDGE('',*,*,#162,.F.);
#722 = CYLINDRICAL_SURFACE('',#723,0.5);
#723 = AXIS2_PLACEMENT_3D('',#724,#725,#726);
#724 = CARTESIAN_POINT('',(58.50000078,24.59999975,0.));
#725 = DIRECTION('',(0.,-0.,1.));
#726 = DIRECTION('',(1.,0.,0.));
#727 = ADVANCED_FACE('',(#728),#739,.T.);
#728 = FACE_BOUND('',#729,.T.);
#729 = EDGE_LOOP('',(#730,#736,#737,#738));
#730 = ORIENTED_EDGE('',*,*,#731,.T.);
#731 = EDGE_CURVE('',#282,#525,#732,.T.);
#732 = LINE('',#733,#734);
#733 = CARTESIAN_POINT('',(59.00000078,-24.60000025,0.));
#734 = VECTOR('',#735,1.);
#735 = DIRECTION('',(-0.,-0.,-1.));
#736 = ORIENTED_EDGE('',*,*,#533,.T.);
#737 = ORIENTED_EDGE('',*,*,#697,.F.);
#738 = ORIENTED_EDGE('',*,*,#290,.F.);
#739 = PLANE('',#740);
#740 = AXIS2_PLACEMENT_3D('',#741,#742,#743);
#741 = CARTESIAN_POINT('',(59.00000078,-24.60000025,0.));
#742 = DIRECTION('',(-1.,-0.,0.));
#743 = DIRECTION('',(0.,-1.,-0.));
#744 = ADVANCED_FACE('',(#745),#756,.T.);
#745 = FACE_BOUND('',#746,.T.);
#746 = EDGE_LOOP('',(#747,#748,#749,#755));
#747 = ORIENTED_EDGE('',*,*,#714,.T.);
#748 = ORIENTED_EDGE('',*,*,#414,.T.);
#749 = ORIENTED_EDGE('',*,*,#750,.F.);
#750 = EDGE_CURVE('',#172,#415,#751,.T.);
#751 = LINE('',#752,#753);
#752 = CARTESIAN_POINT('',(-58.49999922,24.09999975,0.));
#753 = VECTOR('',#754,1.);
#754 = DIRECTION('',(-0.,-0.,-1.));
#755 = ORIENTED_EDGE('',*,*,#171,.F.);
#756 = PLANE('',#757);
#757 = AXIS2_PLACEMENT_3D('',#758,#759,#760);
#758 = CARTESIAN_POINT('',(58.50000078,24.09999975,0.));
#759 = DIRECTION('',(0.,1.,-0.));
#760 = DIRECTION('',(-1.,0.,0.));
#761 = ADVANCED_FACE('',(#762),#773,.F.);
#762 = FACE_BOUND('',#763,.F.);
#763 = EDGE_LOOP('',(#764,#765,#766,#772));
#764 = ORIENTED_EDGE('',*,*,#731,.T.);
#765 = ORIENTED_EDGE('',*,*,#524,.T.);
#766 = ORIENTED_EDGE('',*,*,#767,.F.);
#767 = EDGE_CURVE('',#274,#517,#768,.T.);
#768 = LINE('',#769,#770);
#769 = CARTESIAN_POINT('',(58.50000078,-24.10000025,0.));
#770 = VECTOR('',#771,1.);
#771 = DIRECTION('',(-0.,-0.,-1.));
#772 = ORIENTED_EDGE('',*,*,#281,.F.);
#773 = CYLINDRICAL_SURFACE('',#774,0.5);
#774 = AXIS2_PLACEMENT_3D('',#775,#776,#777);
#775 = CARTESIAN_POINT('',(58.50000078,-24.60000025,0.));
#776 = DIRECTION('',(0.,-0.,1.));
#777 = DIRECTION('',(1.,0.,0.));
#778 = ADVANCED_FACE('',(#779),#790,.F.);
#779 = FACE_BOUND('',#780,.F.);
#780 = EDGE_LOOP('',(#781,#787,#788,#789));
#781 = ORIENTED_EDGE('',*,*,#782,.T.);
#782 = EDGE_CURVE('',#180,#423,#783,.T.);
#783 = LINE('',#784,#785);
#784 = CARTESIAN_POINT('',(-58.99999922,24.59999975,0.));
#785 = VECTOR('',#786,1.);
#786 = DIRECTION('',(-0.,-0.,-1.));
#787 = ORIENTED_EDGE('',*,*,#422,.T.);
#788 = ORIENTED_EDGE('',*,*,#750,.F.);
#789 = ORIENTED_EDGE('',*,*,#179,.F.);
#790 = CYLINDRICAL_SURFACE('',#791,0.5);
#791 = AXIS2_PLACEMENT_3D('',#792,#793,#794);
#792 = CARTESIAN_POINT('',(-58.49999922,24.59999975,0.));
#793 = DIRECTION('',(0.,-0.,1.));
#794 = DIRECTION('',(1.,0.,0.));
#795 = ADVANCED_FACE('',(#796),#807,.T.);
#796 = FACE_BOUND('',#797,.T.);
#797 = EDGE_LOOP('',(#798,#804,#805,#806));
#798 = ORIENTED_EDGE('',*,*,#799,.T.);
#799 = EDGE_CURVE('',#265,#508,#800,.T.);
#800 = LINE('',#801,#802);
#801 = CARTESIAN_POINT('',(-58.49999922,-24.10000025,0.));
#802 = VECTOR('',#803,1.);
#803 = DIRECTION('',(-0.,-0.,-1.));
#804 = ORIENTED_EDGE('',*,*,#516,.T.);
#805 = ORIENTED_EDGE('',*,*,#767,.F.);
#806 = ORIENTED_EDGE('',*,*,#273,.F.);
#807 = PLANE('',#808);
#808 = AXIS2_PLACEMENT_3D('',#809,#810,#811);
#809 = CARTESIAN_POINT('',(-58.49999922,-24.10000025,0.));
#810 = DIRECTION('',(0.,-1.,0.));
#811 = DIRECTION('',(1.,0.,0.));
#812 = ADVANCED_FACE('',(#813),#824,.T.);
#813 = FACE_BOUND('',#814,.T.);
#814 = EDGE_LOOP('',(#815,#816,#817,#823));
#815 = ORIENTED_EDGE('',*,*,#782,.T.);
#816 = ORIENTED_EDGE('',*,*,#431,.T.);
#817 = ORIENTED_EDGE('',*,*,#818,.F.);
#818 = EDGE_CURVE('',#189,#432,#819,.T.);
#819 = LINE('',#820,#821);
#820 = CARTESIAN_POINT('',(-58.99999922,24.69999975,0.));
#821 = VECTOR('',#822,1.);
#822 = DIRECTION('',(-0.,-0.,-1.));
#823 = ORIENTED_EDGE('',*,*,#188,.F.);
#824 = PLANE('',#825);
#825 = AXIS2_PLACEMENT_3D('',#826,#827,#828);
#826 = CARTESIAN_POINT('',(-58.99999922,24.59999975,0.));
#827 = DIRECTION('',(1.,0.,0.));
#828 = DIRECTION('',(-0.,1.,0.));
#829 = ADVANCED_FACE('',(#830),#841,.F.);
#830 = FACE_BOUND('',#831,.F.);
#831 = EDGE_LOOP('',(#832,#833,#834,#840));
#832 = ORIENTED_EDGE('',*,*,#799,.T.);
#833 = ORIENTED_EDGE('',*,*,#507,.T.);
#834 = ORIENTED_EDGE('',*,*,#835,.F.);
#835 = EDGE_CURVE('',#257,#500,#836,.T.);
#836 = LINE('',#837,#838);
#837 = CARTESIAN_POINT('',(-58.99999922,-24.60000025,0.));
#838 = VECTOR('',#839,1.);
#839 = DIRECTION('',(-0.,-0.,-1.));
#840 = ORIENTED_EDGE('',*,*,#264,.F.);
#841 = CYLINDRICAL_SURFACE('',#842,0.5);
#842 = AXIS2_PLACEMENT_3D('',#843,#844,#845);
#843 = CARTESIAN_POINT('',(-58.49999922,-24.60000025,0.));
#844 = DIRECTION('',(0.,-0.,1.));
#845 = DIRECTION('',(1.,0.,0.));
#846 = ADVANCED_FACE('',(#847),#858,.T.);
#847 = FACE_BOUND('',#848,.T.);
#848 = EDGE_LOOP('',(#849,#850,#851,#857));
#849 = ORIENTED_EDGE('',*,*,#818,.T.);
#850 = ORIENTED_EDGE('',*,*,#439,.T.);
#851 = ORIENTED_EDGE('',*,*,#852,.F.);
#852 = EDGE_CURVE('',#197,#440,#853,.T.);
#853 = LINE('',#854,#855);
#854 = CARTESIAN_POINT('',(-59.29999922,24.99999975,0.));
#855 = VECTOR('',#856,1.);
#856 = DIRECTION('',(-0.,-0.,-1.));
#857 = ORIENTED_EDGE('',*,*,#196,.F.);
#858 = CYLINDRICAL_SURFACE('',#859,0.3);
#859 = AXIS2_PLACEMENT_3D('',#860,#861,#862);
#860 = CARTESIAN_POINT('',(-59.29999922,24.69999975,0.));
#861 = DIRECTION('',(0.,-0.,1.));
#862 = DIRECTION('',(1.,0.,0.));
#863 = ADVANCED_FACE('',(#864),#875,.T.);
#864 = FACE_BOUND('',#865,.T.);
#865 = EDGE_LOOP('',(#866,#872,#873,#874));
#866 = ORIENTED_EDGE('',*,*,#867,.T.);
#867 = EDGE_CURVE('',#248,#491,#868,.T.);
#868 = LINE('',#869,#870);
#869 = CARTESIAN_POINT('',(-58.99999922,-24.70000025,0.));
#870 = VECTOR('',#871,1.);
#871 = DIRECTION('',(-0.,-0.,-1.));
#872 = ORIENTED_EDGE('',*,*,#499,.T.);
#873 = ORIENTED_EDGE('',*,*,#835,.F.);
#874 = ORIENTED_EDGE('',*,*,#256,.F.);
#875 = PLANE('',#876);
#876 = AXIS2_PLACEMENT_3D('',#877,#878,#879);
#877 = CARTESIAN_POINT('',(-58.99999922,-24.70000025,0.));
#878 = DIRECTION('',(1.,0.,0.));
#879 = DIRECTION('',(-0.,1.,0.));
#880 = ADVANCED_FACE('',(#881),#892,.F.);
#881 = FACE_BOUND('',#882,.F.);
#882 = EDGE_LOOP('',(#883,#889,#890,#891));
#883 = ORIENTED_EDGE('',*,*,#884,.T.);
#884 = EDGE_CURVE('',#206,#449,#885,.T.);
#885 = LINE('',#886,#887);
#886 = CARTESIAN_POINT('',(-59.99999922,24.99999975,0.));
#887 = VECTOR('',#888,1.);
#888 = DIRECTION('',(-0.,-0.,-1.));
#889 = ORIENTED_EDGE('',*,*,#448,.T.);
#890 = ORIENTED_EDGE('',*,*,#852,.F.);
#891 = ORIENTED_EDGE('',*,*,#205,.F.);
#892 = PLANE('',#893);
#893 = AXIS2_PLACEMENT_3D('',#894,#895,#896);
#894 = CARTESIAN_POINT('',(-59.99999922,24.99999975,0.));
#895 = DIRECTION('',(0.,-1.,0.));
#896 = DIRECTION('',(1.,0.,0.));
#897 = ADVANCED_FACE('',(#898),#909,.T.);
#898 = FACE_BOUND('',#899,.T.);
#899 = EDGE_LOOP('',(#900,#906,#907,#908));
#900 = ORIENTED_EDGE('',*,*,#901,.T.);
#901 = EDGE_CURVE('',#240,#483,#902,.T.);
#902 = LINE('',#903,#904);
#903 = CARTESIAN_POINT('',(-59.29999922,-25.00000025,0.));
#904 = VECTOR('',#905,1.);
#905 = DIRECTION('',(-0.,-0.,-1.));
#906 = ORIENTED_EDGE('',*,*,#490,.T.);
#907 = ORIENTED_EDGE('',*,*,#867,.F.);
#908 = ORIENTED_EDGE('',*,*,#247,.F.);
#909 = CYLINDRICAL_SURFACE('',#910,0.3);
#910 = AXIS2_PLACEMENT_3D('',#911,#912,#913);
#911 = CARTESIAN_POINT('',(-59.29999922,-24.70000025,0.));
#912 = DIRECTION('',(0.,-0.,1.));
#913 = DIRECTION('',(1.,0.,0.));
#914 = ADVANCED_FACE('',(#915),#926,.T.);
#915 = FACE_BOUND('',#916,.T.);
#916 = EDGE_LOOP('',(#917,#918,#919,#925));
#917 = ORIENTED_EDGE('',*,*,#884,.T.);
#918 = ORIENTED_EDGE('',*,*,#456,.T.);
#919 = ORIENTED_EDGE('',*,*,#920,.F.);
#920 = EDGE_CURVE('',#214,#457,#921,.T.);
#921 = LINE('',#922,#923);
#922 = CARTESIAN_POINT('',(-69.99999922,14.99999975,0.));
#923 = VECTOR('',#924,1.);
#924 = DIRECTION('',(-0.,-0.,-1.));
#925 = ORIENTED_EDGE('',*,*,#213,.F.);
#926 = CYLINDRICAL_SURFACE('',#927,10.);
#927 = AXIS2_PLACEMENT_3D('',#928,#929,#930);
#928 = CARTESIAN_POINT('',(-59.99999922,14.99999975,0.));
#929 = DIRECTION('',(0.,-0.,1.));
#930 = DIRECTION('',(1.,0.,0.));
#931 = ADVANCED_FACE('',(#932),#943,.F.);
#932 = FACE_BOUND('',#933,.F.);
#933 = EDGE_LOOP('',(#934,#935,#936,#942));
#934 = ORIENTED_EDGE('',*,*,#901,.T.);
#935 = ORIENTED_EDGE('',*,*,#482,.T.);
#936 = ORIENTED_EDGE('',*,*,#937,.F.);
#937 = EDGE_CURVE('',#231,#474,#938,.T.);
#938 = LINE('',#939,#940);
#939 = CARTESIAN_POINT('',(-59.99999922,-25.00000025,0.));
#940 = VECTOR('',#941,1.);
#941 = DIRECTION('',(-0.,-0.,-1.));
#942 = ORIENTED_EDGE('',*,*,#239,.F.);
#943 = PLANE('',#944);
#944 = AXIS2_PLACEMENT_3D('',#945,#946,#947);
#945 = CARTESIAN_POINT('',(-59.29999922,-25.00000025,0.));
#946 = DIRECTION('',(0.,1.,-0.));
#947 = DIRECTION('',(-1.,0.,0.));
#948 = ADVANCED_FACE('',(#949),#960,.F.);
#949 = FACE_BOUND('',#950,.F.);
#950 = EDGE_LOOP('',(#951,#957,#958,#959));
#951 = ORIENTED_EDGE('',*,*,#952,.T.);
#952 = EDGE_CURVE('',#223,#466,#953,.T.);
#953 = LINE('',#954,#955);
#954 = CARTESIAN_POINT('',(-69.99999922,-15.00000025,0.));
#955 = VECTOR('',#956,1.);
#956 = DIRECTION('',(-0.,-0.,-1.));
#957 = ORIENTED_EDGE('',*,*,#465,.T.);
#958 = ORIENTED_EDGE('',*,*,#920,.F.);
#959 = ORIENTED_EDGE('',*,*,#222,.F.);
#960 = PLANE('',#961);
#961 = AXIS2_PLACEMENT_3D('',#962,#963,#964);
#962 = CARTESIAN_POINT('',(-69.99999922,-15.00000025,0.));
#963 = DIRECTION('',(1.,0.,0.));
#964 = DIRECTION('',(-0.,1.,0.));
#965 = ADVANCED_FACE('',(#966),#972,.T.);
#966 = FACE_BOUND('',#967,.T.);
#967 = EDGE_LOOP('',(#968,#969,#970,#971));
#968 = ORIENTED_EDGE('',*,*,#952,.T.);
#969 = ORIENTED_EDGE('',*,*,#473,.T.);
#970 = ORIENTED_EDGE('',*,*,#937,.F.);
#971 = ORIENTED_EDGE('',*,*,#230,.F.);
#972 = CYLINDRICAL_SURFACE('',#973,10.);
#973 = AXIS2_PLACEMENT_3D('',#974,#975,#976);
#974 = CARTESIAN_POINT('',(-59.99999922,-15.00000025,0.));
#975 = DIRECTION('',(0.,-0.,1.));
#976 = DIRECTION('',(1.,0.,0.));
#977 = ADVANCED_FACE('',(#978),#989,.F.);
#978 = FACE_BOUND('',#979,.F.);
#979 = EDGE_LOOP('',(#980,#986,#987,#988));
#980 = ORIENTED_EDGE('',*,*,#981,.T.);
#981 = EDGE_CURVE('',#326,#569,#982,.T.);
#982 = LINE('',#983,#984);
#983 = CARTESIAN_POINT('',(-63.99999922,-21.70000025,5.E-02));
#984 = VECTOR('',#985,1.);
#985 = DIRECTION('',(0.,-0.707106781187,-0.707106781187));
#986 = ORIENTED_EDGE('',*,*,#568,.T.);
#987 = ORIENTED_EDGE('',*,*,#981,.F.);
#988 = ORIENTED_EDGE('',*,*,#325,.T.);
#989 = CONICAL_SURFACE('',#990,1.7,0.785398163397);
#990 = AXIS2_PLACEMENT_3D('',#991,#992,#993);
#991 = CARTESIAN_POINT('',(-63.99999922,-20.00000025,5.E-02));
#992 = DIRECTION('',(0.,0.,-1.));
#993 = DIRECTION('',(0.,-1.,0.));
#994 = ADVANCED_FACE('',(#995),#1006,.F.);
#995 = FACE_BOUND('',#996,.F.);
#996 = EDGE_LOOP('',(#997,#1003,#1004,#1005));
#997 = ORIENTED_EDGE('',*,*,#998,.T.);
#998 = EDGE_CURVE('',#337,#580,#999,.T.);
#999 = LINE('',#1000,#1001);
#1000 = CARTESIAN_POINT('',(64.00000078,-21.70000025,5.E-02));
#1001 = VECTOR('',#1002,1.);
#1002 = DIRECTION('',(0.,-0.707106781187,-0.707106781187));
#1003 = ORIENTED_EDGE('',*,*,#579,.T.);
#1004 = ORIENTED_EDGE('',*,*,#998,.F.);
#1005 = ORIENTED_EDGE('',*,*,#336,.T.);
#1006 = CONICAL_SURFACE('',#1007,1.7,0.785398163397);
#1007 = AXIS2_PLACEMENT_3D('',#1008,#1009,#1010);
#1008 = CARTESIAN_POINT('',(64.00000078,-20.00000025,5.E-02));
#1009 = DIRECTION('',(0.,0.,-1.));
#1010 = DIRECTION('',(0.,-1.,0.));
#1011 = ADVANCED_FACE('',(#1012),#1023,.F.);
#1012 = FACE_BOUND('',#1013,.F.);
#1013 = EDGE_LOOP('',(#1014,#1020,#1021,#1022));
#1014 = ORIENTED_EDGE('',*,*,#1015,.T.);
#1015 = EDGE_CURVE('',#348,#591,#1016,.T.);
#1016 = LINE('',#1017,#1018);
#1017 = CARTESIAN_POINT('',(-63.99999922,18.29999975,5.E-02));
#1018 = VECTOR('',#1019,1.);
#1019 = DIRECTION('',(0.,-0.707106781187,-0.707106781187));
#1020 = ORIENTED_EDGE('',*,*,#590,.T.);
#1021 = ORIENTED_EDGE('',*,*,#1015,.F.);
#1022 = ORIENTED_EDGE('',*,*,#347,.T.);
#1023 = CONICAL_SURFACE('',#1024,1.7,0.785398163397);
#1024 = AXIS2_PLACEMENT_3D('',#1025,#1026,#1027);
#1025 = CARTESIAN_POINT('',(-63.99999922,19.99999975,5.E-02));
#1026 = DIRECTION('',(0.,0.,-1.));
#1027 = DIRECTION('',(0.,-1.,0.));
#1028 = ADVANCED_FACE('',(#1029),#1040,.F.);
#1029 = FACE_BOUND('',#1030,.F.);
#1030 = EDGE_LOOP('',(#1031,#1032,#1038,#1039));
#1031 = ORIENTED_EDGE('',*,*,#601,.T.);
#1032 = ORIENTED_EDGE('',*,*,#1033,.T.);
#1033 = EDGE_CURVE('',#602,#359,#1034,.T.);
#1034 = LINE('',#1035,#1036);
#1035 = CARTESIAN_POINT('',(3.71894533,8.8154949,-11.5));
#1036 = VECTOR('',#1037,1.);
#1037 = DIRECTION('',(0.,0.,1.));
#1038 = ORIENTED_EDGE('',*,*,#358,.T.);
#1039 = ORIENTED_EDGE('',*,*,#1033,.F.);
#1040 = CYLINDRICAL_SURFACE('',#1041,3.15000001);
#1041 = AXIS2_PLACEMENT_3D('',#1042,#1043,#1044);
#1042 = CARTESIAN_POINT('',(6.86894534,8.8154949,-11.5));
#1043 = DIRECTION('',(0.,0.,-1.));
#1044 = DIRECTION('',(-1.,0.,0.));
#1045 = ADVANCED_FACE('',(#1046),#1057,.F.);
#1046 = FACE_BOUND('',#1047,.F.);
#1047 = EDGE_LOOP('',(#1048,#1054,#1055,#1056));
#1048 = ORIENTED_EDGE('',*,*,#1049,.T.);
#1049 = EDGE_CURVE('',#370,#613,#1050,.T.);
#1050 = LINE('',#1051,#1052);
#1051 = CARTESIAN_POINT('',(64.00000078,18.29999975,5.E-02));
#1052 = VECTOR('',#1053,1.);
#1053 = DIRECTION('',(0.,-0.707106781187,-0.707106781187));
#1054 = ORIENTED_EDGE('',*,*,#612,.T.);
#1055 = ORIENTED_EDGE('',*,*,#1049,.F.);
#1056 = ORIENTED_EDGE('',*,*,#369,.T.);
#1057 = CONICAL_SURFACE('',#1058,1.7,0.785398163397);
#1058 = AXIS2_PLACEMENT_3D('',#1059,#1060,#1061);
#1059 = CARTESIAN_POINT('',(64.00000078,19.99999975,5.E-02));
#1060 = DIRECTION('',(0.,0.,-1.));
#1061 = DIRECTION('',(0.,-1.,0.));
#1062 = ( GEOMETRIC_REPRESENTATION_CONTEXT(3) 
GLOBAL_UNCERTAINTY_ASSIGNED_CONTEXT((#1066)) 
GLOBAL_UNIT_ASSIGNED_CONTEXT((#1063,#1064,#1065)) REPRESENTATION_CONTEXT
('Context #1','3D Context with UNIT and UNCERTAINTY') );
#1063 = ( LENGTH_UNIT() NAMED_UNIT(*) SI_UNIT(.MILLI.,.METRE.) );
#1064 = ( NAMED_UNIT(*) PLANE_ANGLE_UNIT() SI_UNIT($,.RADIAN.) );
#1065 = ( NAMED_UNIT(*) SI_UNIT($,.STERADIAN.) SOLID_ANGLE_UNIT() );
#1066 = UNCERTAINTY_MEASURE_WITH_UNIT(LENGTH_MEASURE(1.E-07),#1063,
  'distance_accuracy_value','confusion accuracy');
#1067 = CONTEXT_DEPENDENT_SHAPE_REPRESENTATION(#1068,#1070);
#1068 = ( REPRESENTATION_RELATIONSHIP('','',#32,#10) 
REPRESENTATION_RELATIONSHIP_WITH_TRANSFORMATION(#1069) 
SHAPE_REPRESENTATION_RELATIONSHIP() );
#1069 = ITEM_DEFINED_TRANSFORMATION('','',#11,#15);
#1070 = PRODUCT_DEFINITION_SHAPE('Placement','Placement of an item',
  #1071);
#1071 = NEXT_ASSEMBLY_USAGE_OCCURRENCE('3','003-SOLID(3)-1','',#5,#27,$
  );
#1072 = PRODUCT_RELATED_PRODUCT_CATEGORY('part',$,(#29));
ENDSEC;
END-ISO-10303-21;
